<svg xmlns="http://www.w3.org/2000/svg" width="654.834" height="498.324" viewBox="0 0 654.834 498.324">
  <g id="Group_73" data-name="Group 73" transform="translate(-843.5 -211)">
    <g id="background_image" data-name="background image" transform="translate(844 211)">
      <g id="Layer_2" data-name="Layer 2" transform="translate(0)">
        <g id="OBJECTS">
          <ellipse id="Ellipse_9" data-name="Ellipse 9" cx="56.378" cy="5.357" rx="56.378" ry="5.357" transform="translate(375.48 487.61)" fill="#c8dbfb"/>
          <ellipse id="Ellipse_10" data-name="Ellipse 10" cx="56.378" cy="5.357" rx="56.378" ry="5.357" transform="translate(85.858 487.61)" fill="#c8dbfb"/>
          <path id="Path_298" data-name="Path 298" d="M432.34,78.968c.16-.994.336-1.974.525-2.968" transform="translate(-409.22 36.787)" fill="none" stroke="#c8dbfb" stroke-linecap="round" stroke-linejoin="round" stroke-width="1"/>
          <path id="Path_299" data-name="Path 299" d="M5.9,82.394C15.968,47.549,48.03,50.918,77.014,50.977l514.2,1.083c48.53.089,43.76,71.382,5.835,71.308-21.88,0-30.166,41.7,7.614,41.776,22.668,0,23.339,29.28,8.154,35.142" transform="translate(19.128 24.62)" fill="none" stroke="#c8dbfb" stroke-linecap="round" stroke-linejoin="round" stroke-width="1" stroke-dasharray="3.99 3.99"/>
          <path id="Path_300" data-name="Path 300" d="M20.157,152.06a16.656,16.656,0,0,1-2.917.252" transform="translate(608.987 73.602)" fill="none" stroke="#c8dbfb" stroke-linecap="round" stroke-linejoin="round" stroke-width="1"/>
          <path id="Path_301" data-name="Path 301" d="M13.906,153.25a7.1,7.1,0,0,0,5.717,8.2,7,7,0,0,0,8.06-5.812,7.1,7.1,0,0,0-5.71-8.2A7.015,7.015,0,0,0,13.906,153.25Z" transform="translate(606.369 71.314)" fill="#5193f4"/>
          <path id="Path_302" data-name="Path 302" d="M428.019,82.844a7,7,0,0,0,8.128,5.719,7.1,7.1,0,0,0,5.619-8.271,7,7,0,0,0-8.131-5.715,7.115,7.115,0,0,0-5.616,8.266Z" transform="translate(-411.769 36.042)" fill="#5193f4"/>
          <path id="Path_303" data-name="Path 303" d="M38.123,138.706A125.588,125.588,0,0,0,42.4,155.684a291.952,291.952,0,0,0,14.587,34.979C59.8,196.6,71.221,210.43,77.405,213.056a328.017,328.017,0,0,1,1.006-49.463c1.707-15.137-3.647-26.609,2.188-40.648.744-1.8,1.459-3.591,2.29-5.387,2.917-6.678,5.835-13.356,6.681-20.584,1.167-9.127-1.619-19.53-9.379-24.279-5.587-3.413-12.866-3.235-18.832-.549a35.221,35.221,0,0,0-14.383,13.1C36.767,100.626,34.929,120.482,38.123,138.706Z" transform="translate(510.94 33.947)" fill="#5193f4"/>
          <path id="Path_304" data-name="Path 304" d="M66.987,82.36c-11.436,16.413-12.413,35.528-13.405,55.622a108.664,108.664,0,0,0,13.507,57.877" transform="translate(509.222 39.865)" fill="none" stroke="#0b43a4" stroke-linecap="round" stroke-linejoin="round" stroke-width="1"/>
          <path id="Path_305" data-name="Path 305" d="M42.366,314.613c8.008-7.2,16.046-14.5,22.026-23.552,5.149-7.88,8.475-16.829,12.968-25.125,2.917-5.357,6.345-10.522,8.023-16.413s1.284-12.837-2.815-17.319-11.669-5.387-17.5-2.968S54.852,236.657,51.4,242a61.405,61.405,0,0,0-8.752,23.641c-1.138,7.6-.861,15.36-2.013,22.958a77.818,77.818,0,0,1-6.374,20.361c-2.669,5.936-9.438,16.324-11.174,22.409C27.881,333.787,38.953,317.685,42.366,314.613Z" transform="translate(534.31 110.326)" fill="#00ad9f"/>
          <path id="Path_306" data-name="Path 306" d="M78.14,236.05c-7.614,3.384-10.634,12.629-12.224,20.925-1.809,9.438-1.459,19.664-5.66,28.2C52.234,301.362,41.8,319.779,34,325.241" transform="translate(526.557 114.257)" fill="none" stroke="#00ad9f" stroke-linecap="round" stroke-linejoin="round" stroke-width="1"/>
          <path id="Path_307" data-name="Path 307" d="M73.958,272.123c6.652-2.656,15.52-3.755,19.78,2.078,3.559,4.883,1.721,11.8-.744,17.348-2.086,4.675-4.726,9.438-9.117,11.976a25.659,25.659,0,0,1-9.919,2.686A236.511,236.511,0,0,1,45.164,307.9a59.673,59.673,0,0,0-33.885,11.665C23.123,297.188,51.6,281.116,73.958,272.123Z" transform="translate(542.117 130.674)" fill="#0056ec"/>
          <path id="Path_308" data-name="Path 308" d="M88.533,281.23c-8.46.371-16.994.965-25.1,3.413S23.2,302.051,18.21,308.388" transform="translate(539.197 136.125)" fill="none" stroke="#0b43a4" stroke-linecap="round" stroke-linejoin="round" stroke-width="1"/>
          <path id="Path_309" data-name="Path 309" d="M-.029,275.6a56.238,56.238,0,0,1,39.384-25.57c11.757-1.6,23.849.638,35.461-1.855a45.262,45.262,0,0,0,29.536-21.512,46.7,46.7,0,0,0,4.451-36.677c-2.728-9.231-8.956-17.972-17.971-20.94a28.063,28.063,0,0,0-15.3-.163,42.422,42.422,0,0,0-12.909,5.684c-9.073,5.847-16.41,14.84-21.88,24.4-5,8.682-17.344,22.261-25.746,30.987-4.916,5.15-8.5,8.652-8.5,8.652C.686,245.887,3.385,266.916-.029,275.6Z" transform="translate(543.636 81.268)" fill="#52d2bc"/>
          <path id="Path_310" data-name="Path 310" d="M90.894,186.66c-28.255,12.97-59.077,29.978-79.1,54.049" transform="translate(546.2 90.35)" fill="none" stroke="#00ad9f" stroke-linecap="round" stroke-linejoin="round" stroke-width="1"/>
          <path id="Path_311" data-name="Path 311" d="M32.93,244.381s42.127-34.726,50.981-71.991c-9.073,5.847-16.41,14.84-21.88,24.4-5,8.682-17.344,22.261-25.746,30.987C35.249,232.449,34.214,237.91,32.93,244.381Z" transform="translate(522.347 83.443)" fill="#5275a0" opacity="0.2"/>
          <path id="Path_312" data-name="Path 312" d="M41.45,140.215a291.956,291.956,0,0,0,14.587,34.979c2.815,5.936,14.237,19.767,20.422,22.394a328.018,328.018,0,0,1,1.006-49.463c1.707-15.137-3.647-26.609,2.188-40.648.744-1.8,1.459-3.591,2.29-5.387-.54.178-1.065.371-1.575.594-9.6,4.185-14.033,14.514-14.849,24.546-.686,8.281.788,16.577,1.882,24.813a33.344,33.344,0,0,1,.117,11.412.362.362,0,0,0,0,.119,4.186,4.186,0,0,1-8.2-.312l-2.626-13.816c-.759-4.126-1.59-8.444-4.916-11.323a6.947,6.947,0,0,0-4.726-1.8A6.478,6.478,0,0,0,41.45,140.215Z" transform="translate(511.887 49.415)" fill="#5275a0" opacity="0.2"/>
          <path id="Path_313" data-name="Path 313" d="M27.883,267.684c6.652-35.335,10.138-40.781,7.22-49.626-3.734-11.293-1.634-22.646-5.149-34s-5.908-23.522-3.078-35.1c.9-3.651,2.713-7.628,7.031-7.791a6.949,6.949,0,0,1,4.726,1.855c3.326,2.879,4.172,7.2,4.93,11.323L46.1,168.135a4.186,4.186,0,0,0,8.2.312v-.119a33.328,33.328,0,0,0-.1-11.412c-1.094-8.236-2.567-16.532-1.9-24.813.817-10.032,5.251-20.361,14.864-24.546a16.653,16.653,0,0,1,10.823-.876c10.021,2.612,12.618,12.585,11.144,21.088-1.021,5.936-3.793,11.5-6.287,17.022-6.1,13.49-1.619,25.867-2.465,40.692C78.076,226.353,27.883,267.684,27.883,267.684Z" transform="translate(527.394 51.384)" fill="#7ee8d4"/>
          <path id="Path_314" data-name="Path 314" d="M77.261,113.69c-4.945,25.14-9.948,50.457-19.546,74.2-2.815,6.96-4.2,16.1-20.494,35.023" transform="translate(522.739 55.03)" fill="none" stroke="#00ad9f" stroke-linecap="round" stroke-linejoin="round" stroke-width="1"/>
          <path id="Path_315" data-name="Path 315" d="M99.243,153.73c5.12-5.936,9.846-12.006,14.82-17.808,3.224-3.784,6.549-7.42,10.211-10.982,1.794-1.751,3.647-3.443,5.6-5.09a156.827,156.827,0,0,1,38.232-23.745c8.314-3.621,17.1-6.6,24.156-12.377s12.092-15.226,9.773-24.116c-1.707-6.411-7.06-11.4-13.128-13.683a34.536,34.536,0,0,0-19.3-.7c-17.8,3.9-32.66,16.918-42.769,32.307l-.54.831c-7.41,11.5-12.588,24.294-17.1,37.324-1.459,4.185-2.815,8.4-4.172,12.6C102.846,134.571,96.617,147.557,99.243,153.73Z" transform="translate(307.846 21.386)" fill="#5193f4"/>
          <path id="Path_316" data-name="Path 316" d="M190.941,55.07c-19.415,3.769-33.156,16.844-47.553,30.616a107.651,107.651,0,0,0-29.728,51.259" transform="translate(297.557 26.656)" fill="none" stroke="#0b43a4" stroke-linecap="round" stroke-linejoin="round" stroke-width="1"/>
          <path id="Path_317" data-name="Path 317" d="M154.672,124.771a23.777,23.777,0,0,1-.277,6.174c4.857-1.128,8.227-8.8,10.444-17.155a131,131,0,0,0,3.588-20.955,92.2,92.2,0,0,0-1.634-25.614c-7.41,11.5-12.588,24.294-17.1,37.324q2.319,7,3.968,14.187a41.894,41.894,0,0,1,1.007,6.04Z" transform="translate(267.238 32.537)" fill="#5275a0" opacity="0.2"/>
          <path id="Path_318" data-name="Path 318" d="M153.05,65.184c1.634,7.42,6.039,13.8,9.9,20.3,2.057,3.413,3.953,6.93,5.733,10.492a160.9,160.9,0,0,1,12.924,35.943,29.621,29.621,0,0,1,.715,12.228c9.569-2.211,13.376-29.888,14.033-38.125a91.018,91.018,0,0,0-7.293-43.556c-2.626-5.936-6-11.872-11.2-15.612s-12.545-5.15-18.044-1.825a14.829,14.829,0,0,0-6.477,9.1A23.058,23.058,0,0,0,153.05,65.184Z" transform="translate(235.178 20.89)" fill="#52d2bc"/>
          <path id="Path_319" data-name="Path 319" d="M177.743,132.689c5.951-15.211,2.348-47.4-7.206-67.628-2.917-6.085-6.973-11.872-12.705-15.211" transform="translate(243.423 24.129)" fill="none" stroke="#00ad9f" stroke-linecap="round" stroke-linejoin="round" stroke-width="1"/>
          <path id="Path_320" data-name="Path 320" d="M168.786,61.606c1.634,7.42,6.039,13.8,9.9,20.3,2.057,3.413,3.953,6.93,5.733,10.492a35.716,35.716,0,0,0,4.9-14.588c.8-8.622-2.436-17.808-9.321-22.943a24.9,24.9,0,0,0-10.955-4.319,23.058,23.058,0,0,0-.263,11.056Z" transform="translate(219.443 24.468)" fill="#5275a0" opacity="0.2"/>
          <path id="Path_321" data-name="Path 321" d="M172.428,126.117a31.774,31.774,0,0,0,2.48,8.192c4.245,9.349,13.128,17.378,26.5,23.893,0,0,.744-14.84.89-18.729.656-16.948,18.729-26.327,30.166-38.674,5.835-6.307,10.211-14.276,11.057-22.884S241.1,60.107,234.2,54.972c-5.835-4.23-13.332-5.164-20.422-4.615-11.465.935-23.033,5.817-30.151,14.929a11.279,11.279,0,0,0-.846,1.069c-4.376,6.07-6.608,13.46-8.256,20.776C171.655,99.923,170.372,113.191,172.428,126.117Z" transform="translate(160.589 24.305)" fill="#00ad9f"/>
          <path id="Path_322" data-name="Path 322" d="M220.443,59.55c-12.5,6.574-25.046,14.544-32.324,26.8-10.211,17.111-7.95,39.371-.117,57.7" transform="translate(169.434 28.824)" fill="none" stroke="#00ad9f" stroke-linecap="round" stroke-linejoin="round" stroke-width="1"/>
          <path id="Path_323" data-name="Path 323" d="M457.853,215.775c-7.979-13.356-3.895-30.527-6.681-45.9a50.886,50.886,0,0,0-17.84-30.245c-5.835-4.69-13.945-8.043-20.509-4.452-1.459.757-3.107,1.84-4.478.979a3.654,3.654,0,0,1-1.327-2.493c-1.663-8.311,2.261-17.378-.948-25.229-1.721-4.2-5.3-7.42-9.073-9.795a48.857,48.857,0,0,0-24.462-7.806,13.357,13.357,0,0,0-6.739,1.039c-3.705,1.885-5.4,6.589-4.9,10.774a23.922,23.922,0,0,0,5.3,11.279c8.373,11.145,20.64,20.777,22.259,34.7a9.121,9.121,0,0,1-.6,5.194c-.758,1.484-2.188,2.6-2.99,4.111-2.582,4.823,2.407,10.284,7.293,12.659a41.629,41.629,0,0,0,14.178,3.992c3.384.326,7.191.4,9.5,2.968,4.23,4.69-.642,12.184.248,18.491.554,3.933,3.37,7.109,6.185,9.869a111.165,111.165,0,0,0,17.067,13.683c4.96,3.235,10.211,6.085,14.587,10.077s7.935,9.364,8.227,15.345" transform="translate(-334.157 43.931)" fill="#52d2bc"/>
          <path id="Path_324" data-name="Path 324" d="M441.629,199.126c-1.313-6.47-4.274-12.466-7.191-18.358-4.58-9.216-9.263-18.565-16.177-26.119-5.251-5.743-11.669-10.284-16.994-15.939a59.022,59.022,0,0,1-9.6-13.564,47.065,47.065,0,0,0-4.449-7.865c-2.2-2.8-5.237-4.808-7.877-7.212A34.412,34.412,0,0,1,371,98.36" transform="translate(-328.508 47.61)" fill="none" stroke="#00ad9f" stroke-linecap="round" stroke-linejoin="round" stroke-width="1"/>
          <path id="Path_325" data-name="Path 325" d="M359.179,194.68c1.794,7.034,4.464,13.994,9.044,19.574a41.187,41.187,0,0,0,11.407,9.364,63.72,63.72,0,0,0,6.9,3.428,81.644,81.644,0,0,0,28.838,6.5c14.412.549,29.174-2.686,43.06,1.484a42.919,42.919,0,0,1,24.623,19.827l-1.882-12.169C477.682,229.6,474.123,216.273,467,204.8A99.212,99.212,0,0,0,450.1,184.945,141.027,141.027,0,0,0,416.3,160.9c-10.036-4.957-21.18-8.444-32.266-7.064s-21.88,8.489-25.41,19.292C356.407,180.062,357.37,187.631,359.179,194.68Z" transform="translate(-350.003 74.317)" fill="#5193f4"/>
          <path id="Path_326" data-name="Path 326" d="M473.062,227.516a87.706,87.706,0,0,0-44.388-34.3c-11.173-3.784-23-5.239-34.323-8.563s-22.624-8.9-29.261-18.877" transform="translate(-351.32 80.243)" fill="none" stroke="#0b43a4" stroke-linecap="round" stroke-linejoin="round" stroke-width="1"/>
          <path id="Path_327" data-name="Path 327" d="M437.723,309.433c-.627-16.324-8.942-31.476-19.05-44.239-8.417-10.641-18.584-20.376-31.143-25.229-3.924-1.484-8.242-2.553-12.326-1.484s-7.789,4.586-7.862,8.9c-.073,3.606,2.319,6.767,4.828,9.32,8.242,8.414,18.963,13.8,28.911,19.945,17.183,10.566,33.55,24.679,40.333,43.883" transform="translate(-322.954 115.224)" fill="#52d2bc"/>
          <path id="Path_328" data-name="Path 328" d="M429.85,292.091c-10.5-23.834-37.678-45.144-55.62-47.8" transform="translate(-321.44 118.245)" fill="none" stroke="#00ad9f" stroke-linecap="round" stroke-linejoin="round" stroke-width="1"/>
          <path id="Path_329" data-name="Path 329" d="M442.191,306.665c.146-2.745-8.65-9.913-10.634-11.754a101.512,101.512,0,0,0-37.809-21.979c-5.572-1.781-11.494-3.072-17.081-1.707s-10.692,6.025-11.246,12.154S368.8,295.119,373.808,298s10.838,3.309,16.41,2.968c8.606-.519,17.067-2.686,25.717-2.627S436.707,299.363,442.191,306.665Z" transform="translate(-320.858 131.007)" fill="#00ad9f"/>
          <path id="Path_330" data-name="Path 330" d="M435.284,293.928c-17.665-9.735-44.373-16.072-63.774-13.683" transform="translate(-322.907 135.404)" fill="none" stroke="#00ad9f" stroke-linecap="round" stroke-linejoin="round" stroke-width="1"/>
          <path id="Path_331" data-name="Path 331" d="M210.645,121.2a31.773,31.773,0,0,0,2.48,8.192A144.838,144.838,0,0,0,226.092,77.14a29.357,29.357,0,0,0-4.274-16.77,11.281,11.281,0,0,0-.846,1.069c-4.376,6.07-6.608,13.46-8.256,20.776C209.872,95.007,208.588,108.275,210.645,121.2Z" transform="translate(122.372 29.221)" fill="#5275a0" opacity="0.2"/>
          <path id="Path_332" data-name="Path 332" d="M272.381,137.787c-13.2-4.779-26.9-8.578-38.888-15.924a34.306,34.306,0,0,1-9.7-8.222,16.745,16.745,0,0,1-3.574-12.05c.583-4.333,3.311-8.489,2.392-12.778-.613-2.82-2.684-5.016-4.274-7.42a23.971,23.971,0,0,1-2.99-19.708c2.071-7.064,7.293-12.718,10.211-19.456a32.875,32.875,0,0,0,2.465-17.66c11.071.148,21.18,6.292,32.091,8.355,8.329,1.558,16.994.712,25.235,2.642a40.228,40.228,0,0,1,29.67,32.53,21.655,21.655,0,0,1,19.342,6.589,29.281,29.281,0,0,1,7.585,21.162c-3.4,55.547-34.658,84.59-34.658,84.59S277.414,139.6,272.381,137.787Z" transform="translate(-0.468 11.893)" fill="#7ee8d4"/>
          <path id="Path_333" data-name="Path 333" d="M300.589,133.049c1.371-13.7-3.34-27.232-8.752-39.861-5.266-12.318-11.319-24.383-19.459-34.934S253.9,38.62,241.745,33.53" transform="translate(0.834 16.23)" fill="none" stroke="#00ad9f" stroke-linecap="round" stroke-linejoin="round" stroke-width="1"/>
          <path id="Path_334" data-name="Path 334" d="M252.3,39.19A112.456,112.456,0,0,1,249.583,78" transform="translate(37.325 18.969)" fill="none" stroke="#00ad9f" stroke-linecap="round" stroke-linejoin="round" stroke-width="1"/>
          <path id="Path_335" data-name="Path 335" d="M304.414,66.819c-13.712-8.9-34.8-14.38-51.054-13.445" transform="translate(-19.693 25.785)" fill="none" stroke="#00ad9f" stroke-linecap="round" stroke-linejoin="round" stroke-width="1"/>
          <path id="Path_336" data-name="Path 336" d="M248.005,63.94c-16.512,7.079-17.2,31.773-17.635,38.793" transform="translate(70.25 30.949)" fill="none" stroke="#00ad9f" stroke-linecap="round" stroke-linejoin="round" stroke-width="1"/>
          <path id="Path_337" data-name="Path 337" d="M289.869,82.755c-12.632-9.216-30.895-11.991-44.329-8.563" transform="translate(6.258 35.226)" fill="none" stroke="#00ad9f" stroke-linecap="round" stroke-linejoin="round" stroke-width="1"/>
          <path id="Path_338" data-name="Path 338" d="M266.127,34.92A20.542,20.542,0,0,1,270.5,49.285" transform="translate(-4.469 16.903)" fill="none" stroke="#00ad9f" stroke-linecap="round" stroke-linejoin="round" stroke-width="1"/>
          <path id="Path_339" data-name="Path 339" d="M290.52,43.167c-5.835-2.968-13.61-3.725-21.88-1.6" transform="translate(-28.089 19.533)" fill="none" stroke="#00ad9f" stroke-linecap="round" stroke-linejoin="round" stroke-width="1"/>
          <path id="Path_340" data-name="Path 340" d="M65.772,67.031c-1.561-.089-12.136-8.058-16.206-10.744a11.135,11.135,0,0,1-3.122-2.671,4.048,4.048,0,0,1-.583-3.933,4.851,4.851,0,0,1,4.945-3.116c5.28,0,7.1,1.781,9.671,4.452C68.981,59.967,65.772,67.031,65.772,67.031Z" transform="translate(521.421 22.531)" fill="#4a49ca"/>
          <path id="Path_341" data-name="Path 341" d="M92.8,84.228c-4.595,2.107-9.525,4.215-14.587,3.562-1.955-.252-4.07-1.158-4.712-2.968a4.5,4.5,0,0,1,1.459-4.571A10.288,10.288,0,0,1,79.5,78.173c6.126-1.484,14.733-.683,20.815,1.069A52.431,52.431,0,0,1,92.8,84.228Z" transform="translate(446.97 37.463)" fill="#4a49ca"/>
          <path id="Path_342" data-name="Path 342" d="M110.264,38.613c2.057-1.321,4.376-3.087,4.376-5.565s-2.538-4.363-4.974-4.378a10.132,10.132,0,0,0-6.535,2.968c-7.746,6.916-6.783,14.84-6.783,14.84S107.974,40.082,110.264,38.613Z" transform="translate(399.167 13.877)" fill="#4a49ca"/>
          <path id="Path_343" data-name="Path 343" d="M114.5,23.932a10.027,10.027,0,0,0,4.726-3.428,3.311,3.311,0,0,0,.481-2.716c-.525-1.484-1.459-2.968-5.266-2.211C102.41,17.8,99.857,26.187,99.857,26.187S111.308,25.327,114.5,23.932Z" transform="translate(388.816 7.441)" fill="#4a49ca"/>
          <path id="Path_344" data-name="Path 344" d="M143.26,39.4a18.857,18.857,0,0,1-12.851-6.693,12.072,12.072,0,0,1-2.582-4.868,5.343,5.343,0,0,1,1.459-5.12,5.265,5.265,0,0,1,6.243,0,12.907,12.907,0,0,1,3.968,5.357C140.78,30.783,143.26,39.4,143.26,39.4Z" transform="translate(324.802 10.503)" fill="#4a49ca"/>
          <path id="Path_345" data-name="Path 345" d="M105.782,219.4l35.008-31.447c6.229-5.595,12.588-11.338,16.527-18.773,8.533-15.983,3.647-36.745-7.8-50.68s-28.3-22.157-45.088-28.137-34.4-10.18-50.456-18.105C43.9,67.3,33.694,59.9,31,48.872a23.686,23.686,0,0,1,3.712-19.534A22.861,22.861,0,0,1,51.869,19.8" transform="translate(448.474 9.584)" fill="none" stroke="#0b43a4" stroke-linecap="round" stroke-linejoin="round" stroke-width="1"/>
          <path id="Path_346" data-name="Path 346" d="M118.66,26c3.195,9.988,15.637,16.057,21.311,24.694" transform="translate(341.234 12.585)" fill="none" stroke="#0b43a4" stroke-linecap="round" stroke-linejoin="round" stroke-width="1"/>
          <path id="Path_347" data-name="Path 347" d="M113.492,33.69c-2.451,2.627-5.383,4.793-7.527,7.7-4.507,6.129-4.887,16.072,1.794,22.261" transform="translate(391.066 16.307)" fill="none" stroke="#0b43a4" stroke-linecap="round" stroke-linejoin="round" stroke-width="1"/>
          <path id="Path_348" data-name="Path 348" d="M96.376,71.32A66.055,66.055,0,0,1,59.5,85.314" transform="translate(471.125 34.521)" fill="none" stroke="#0b43a4" stroke-linecap="round" stroke-linejoin="round" stroke-width="1"/>
          <path id="Path_349" data-name="Path 349" d="M54.385,94.4A37.394,37.394,0,0,0,42.147,54.05" transform="translate(536.717 26.162)" fill="none" stroke="#0b43a4" stroke-linecap="round" stroke-linejoin="round" stroke-width="1"/>
          <path id="Path_350" data-name="Path 350" d="M315.45,42.781a5.342,5.342,0,0,0-.759-5.253,3.775,3.775,0,0,0-4.041-.92c-10.211,4.6-9.146,20.866-9.146,20.866S311.235,56.049,315.45,42.781Z" transform="translate(-101.286 17.604)" fill="#4a49ca"/>
          <path id="Path_351" data-name="Path 351" d="M326.2,62.467c6.652,12.2-16.95,11.264-25.439,4.111C300.761,66.578,320.482,51.975,326.2,62.467Z" transform="translate(-111.788 28.4)" fill="#4a49ca"/>
          <path id="Path_352" data-name="Path 352" d="M337.276,44.414c1.6-2.226,2.173-5.55.438-7.672a5.771,5.771,0,0,0-5.543-1.692,12.816,12.816,0,0,0-6.229,3.858c-7.76,9.824-4.114,19.441-4.114,19.441S334.665,48.08,337.276,44.414Z" transform="translate(-152.679 16.891)" fill="#4a49ca"/>
          <path id="Path_353" data-name="Path 353" d="M400.951,63.819a5.489,5.489,0,0,0-1.007-5.55,4.6,4.6,0,0,0-3.457-1.039,10.356,10.356,0,0,0-3.53,1.069,11.315,11.315,0,0,0-5.426,5.491c-2.917,6.114-.934,13.668-.934,13.668S399.522,68.553,400.951,63.819Z" transform="translate(-309.973 27.687)" fill="#4a49ca"/>
          <path id="Path_354" data-name="Path 354" d="M360.719,77.96a14.939,14.939,0,0,1,15.652-2.582,8.041,8.041,0,0,1,3.311,2.582c1.853,2.612,1.211,6.456-.729,9.023a19.618,19.618,0,0,1-7.746,5.461c-5.251,2.419-13.391,2.968-18.963,4.348C352.258,96.793,352.273,85.514,360.719,77.96Z" transform="translate(-240.304 35.925)" fill="#4a49ca"/>
          <path id="Path_355" data-name="Path 355" d="M430.659,42.45c-3.472,11.561-13.289,20.272-24.214,24.991s-22.96,5.936-34.819,6.738-23.82,1.158-35.286,4.333c-11.159,3.072-22.274,9.5-27.073,20.213-5.835,13.045-.671,28.627,7.527,40.292S336,160.06,343.925,171.9c3.632,5.432,6.666,11.8,5.937,18.343-.977,8.711-8.2,15.122-14.893,20.643" transform="translate(-223.846 20.547)" fill="none" stroke="#0b43a4" stroke-linecap="round" stroke-linejoin="round" stroke-width="1"/>
          <path id="Path_356" data-name="Path 356" d="M341.142,39.6A69.669,69.669,0,0,0,325.49,74.059" transform="translate(-161.636 19.168)" fill="none" stroke="#0b43a4" stroke-linecap="round" stroke-linejoin="round" stroke-width="1"/>
          <path id="Path_357" data-name="Path 357" d="M334.434,63.727a53.5,53.5,0,0,1-13.682,2.449A20.676,20.676,0,0,1,307.39,60.24" transform="translate(-128.526 29.158)" fill="none" stroke="#0b43a4" stroke-linecap="round" stroke-linejoin="round" stroke-width="1"/>
          <path id="Path_358" data-name="Path 358" d="M398.433,62.15a23.739,23.739,0,0,0-6.973,15.894c-.219,5.936,3.02,13.149,6.914,17.586" transform="translate(-315.142 30.083)" fill="none" stroke="#0b43a4" stroke-linecap="round" stroke-linejoin="round" stroke-width="1"/>
          <path id="Path_359" data-name="Path 359" d="M402.809,80.32a235.332,235.332,0,0,1-25.046,20.91c-4.274,3.057-12.734,6.96-16.483,5.936" transform="translate(-275.509 38.878)" fill="none" stroke="#0b43a4" stroke-linecap="round" stroke-linejoin="round" stroke-width="1"/>
          <path id="Path_360" data-name="Path 360" d="M361.543,204.635a63.724,63.724,0,0,0,6.9,3.428,81.646,81.646,0,0,0,28.838,6.5c14.412.549,29.174-2.686,43.06,1.484a42.271,42.271,0,0,1,16.994,10.017c.481.237.963.5,1.459.787,1.152-9.928-23.179-22.869-30.632-26.238a86.822,86.822,0,0,0-42.812-7.6c-6.389.519-12.938,1.8-18.2,5.491a19.7,19.7,0,0,0-5.6,6.129Z" transform="translate(-331.917 93.3)" fill="#5275a0" opacity="0.2"/>
          <path id="Path_361" data-name="Path 361" d="M387.748,197.023c-6.389.519-12.939,1.8-18.219,5.491s-8.985,10.3-7.746,16.7c1.459,7.42,9,12.288,16.41,13.208s14.806-1.172,22.114-2.656a155.125,155.125,0,0,1,49.26-2.3,28.457,28.457,0,0,1,11.567,3.428c1.152-9.928-23.193-22.869-30.632-26.238a86.794,86.794,0,0,0-42.754-7.628Z" transform="translate(-334.258 95.243)" fill="#52d2bc"/>
          <path id="Path_362" data-name="Path 362" d="M449.3,220.81c-12.093-10.8-43.1-18.135-65.043-15.775-6.608.712-13.274,2.716-18.35,7.079" transform="translate(-328.757 99.03)" fill="none" stroke="#00ad9f" stroke-linecap="round" stroke-linejoin="round" stroke-width="1"/>
          <path id="Path_363" data-name="Path 363" d="M493.551,133.8l-117.978-.252a25.293,25.293,0,0,0-25.133,25.466h0a25.3,25.3,0,0,0,25.016,25.555l80.709.163" transform="translate(-350.44 64.643)" fill="none" stroke="#0b43a4" stroke-linecap="round" stroke-linejoin="round" stroke-width="1" stroke-dasharray="4"/>
          <path id="Path_364" data-name="Path 364" d="M39.45,193.11l82.518.178a14.029,14.029,0,0,1,10.022,4.263,14.526,14.526,0,0,1,4.1,10.236h0a14.273,14.273,0,0,1-14.178,14.365H97.855" transform="translate(460.66 93.472)" fill="none" stroke="#0b43a4" stroke-linecap="round" stroke-linejoin="round" stroke-width="1" stroke-dasharray="4"/>
          <path id="Path_365" data-name="Path 365" d="M555.651,243.459c28.313.119,28.853,42.948-7.1,42.874L18.491,285.22c-22.26,0-24.608-35.365,2.917-35.305,54.73.119,56.553-26.446,26.169-26.5" transform="translate(76.164 108.138)" fill="none" stroke="#c8dbfb" stroke-linecap="round" stroke-linejoin="round" stroke-width="1" stroke-dasharray="4"/>
          <path id="Path_366" data-name="Path 366" d="M10.531,238.035a7.1,7.1,0,0,0,5.707,8.213,7,7,0,0,0,8.067-5.814,7.1,7.1,0,0,0-5.722-8.2A7,7,0,0,0,10.531,238.035Z" transform="translate(614.675 112.36)" fill="#5193f4"/>
          <path id="Path_367" data-name="Path 367" d="M363.586,225.471a7.1,7.1,0,0,0,5.717,8.2,7,7,0,0,0,8.06-5.812,7.1,7.1,0,0,0-5.71-8.2,6.879,6.879,0,0,0-5.222,1.2A7.109,7.109,0,0,0,363.586,225.471Z" transform="translate(-253.383 106.27)" fill="#0b43a4"/>
          <path id="Path_368" data-name="Path 368" d="M80.25,410.631l438.9.92a10.7,10.7,0,0,0,10.619-10.759l.6-295.813A10.7,10.7,0,0,0,519.795,94.16l-438.9-.92a10.5,10.5,0,0,0-7.5,3.14A10.869,10.869,0,0,0,70.273,104L69.66,399.827a10.713,10.713,0,0,0,10.59,10.8Z" transform="translate(22.31 45.131)" fill="#5275a0" opacity="0.2"/>
          <path id="Path_369" data-name="Path 369" d="M74.345,406.821l438.9.92a10.7,10.7,0,0,0,10.619-10.759l.6-295.813A10.7,10.7,0,0,0,513.919,90.35l-438.9-.92A10.7,10.7,0,0,0,64.4,100.2L63.77,395.987a10.886,10.886,0,0,0,3.08,7.647,10.515,10.515,0,0,0,7.5,3.186Z" transform="translate(36.806 43.287)" fill="#fff"/>
          <path id="Path_370" data-name="Path 370" d="M75.473,89.43l437.021.92a11.455,11.455,0,0,1,8.166,3.469,11.86,11.86,0,0,1,3.358,8.329v10.21l-460.1-.965v-10.24A11.654,11.654,0,0,1,75.473,89.43Z" transform="translate(37.036 43.287)" fill="#0056ec"/>
          <path id="Path_371" data-name="Path 371" d="M129.855,400.325l-66.035-.134.656-295.442,77.573.163-.627,283.659a11.843,11.843,0,0,1-3.385,8.321A11.439,11.439,0,0,1,129.855,400.325Z" transform="translate(419.15 50.703)" fill="#c8dbfb"/>
          <path id="Path_372" data-name="Path 372" d="M75.077,92.4A7.769,7.769,0,0,0,67.39,100.2l-.6,295.783a7.756,7.756,0,0,0,7.673,7.836l438.918.92a7.754,7.754,0,0,0,7.687-7.791l.6-295.8a7.785,7.785,0,0,0-7.673-7.836L75.077,92.4h0m0-2.968h0l438.9.92a10.7,10.7,0,0,1,10.575,10.819l-.6,295.813a10.7,10.7,0,0,1-10.6,10.759h0l-438.9-.92a10.5,10.5,0,0,1-7.5-3.166,10.87,10.87,0,0,1-3.091-7.638l.6-295.813A10.7,10.7,0,0,1,75.077,89.43Z" transform="translate(36.585 43.287)" fill="#0056ec"/>
          <rect id="Rectangle_177" data-name="Rectangle 177" width="59.018" height="8.783" rx="2.79" transform="translate(549.058 428.557) rotate(-179.88)" fill="#fff"/>
          <rect id="Rectangle_178" data-name="Rectangle 178" width="58.214" height="59.226" rx="5.11" transform="translate(550.999 228.112) rotate(-179.88)" fill="#fff"/>
          <rect id="Rectangle_179" data-name="Rectangle 179" width="161.564" height="11.466" rx="3.64" transform="translate(470.998 360.359) rotate(-179.88)" fill="#c8dbfb"/>
          <rect id="Rectangle_180" data-name="Rectangle 180" width="129.896" height="11.472" rx="3.64" transform="translate(318.562 174.3)" fill="#c8dbfb"/>
          <rect id="Rectangle_181" data-name="Rectangle 181" width="169.659" height="11.465" rx="3.64" transform="translate(299.258 308.141) rotate(-179.88)" fill="#c8dbfb"/>
          <rect id="Rectangle_182" data-name="Rectangle 182" width="161.564" height="11.466" rx="3.64" transform="translate(470.964 384.088) rotate(-179.88)" fill="#c8dbfb"/>
          <rect id="Rectangle_183" data-name="Rectangle 183" width="161.564" height="11.466" rx="3.64" transform="translate(470.9 407.803) rotate(-179.88)" fill="#c8dbfb"/>
          <rect id="Rectangle_184" data-name="Rectangle 184" width="169.657" height="84.302" rx="6.01" transform="translate(299.019 423.272) rotate(-179.88)" fill="#c8dbfb"/>
          <path id="Path_373" data-name="Path 373" d="M76.12,98.529a3.786,3.786,0,0,0,2.286,3.507,3.673,3.673,0,0,0,4.059-.811,3.832,3.832,0,0,0,.813-4.126,3.72,3.72,0,0,0-3.438-2.34,3.658,3.658,0,0,0-2.634,1.094A3.788,3.788,0,0,0,76.12,98.529Z" transform="translate(459.698 45.867)" fill="#c8dbfb"/>
          <ellipse id="Ellipse_11" data-name="Ellipse 11" cx="3.72" cy="3.784" rx="3.72" ry="3.784" transform="translate(520.064 140.583)" fill="#c8dbfb"/>
          <path id="Path_374" data-name="Path 374" d="M97.71,98.479a3.72,3.72,0,1,0,3.734-3.769,3.753,3.753,0,0,0-3.734,3.769Z" transform="translate(406.615 45.843)" fill="#c8dbfb"/>
          <path id="Path_426" data-name="Path 426" d="M10.965,21.516A10.8,10.8,0,0,0,21.882,10.782,10.89,10.89,0,0,0,10.928.011,10.8,10.8,0,0,0,.011,10.745,10.89,10.89,0,0,0,10.965,21.516Z" transform="translate(455.005 191.611) rotate(-95.72)" fill="#c8dbfb"/>
          <rect id="Rectangle_185" data-name="Rectangle 185" width="51.623" height="4.333" rx="1.37" transform="translate(495.704 233.261)" fill="#fff"/>
          <rect id="Rectangle_186" data-name="Rectangle 186" width="51.623" height="4.332" rx="1.37" transform="translate(546.806 246.624) rotate(-179.88)" fill="#fff"/>
          <path id="Path_375" data-name="Path 375" d="M122.67,200.1l13.464.134-.1,57.4H147.7a7.489,7.489,0,0,0,7.439-7.539l.219-106.153a7.579,7.579,0,0,0-7.5-7.643h-25Z" transform="translate(319.997 65.974)" fill="#c8dbfb"/>
          <path id="Path_376" data-name="Path 376" d="M131.662,136.16v1.484a7.358,7.358,0,0,0-7.293,7.42l-.219,103.5a7.358,7.358,0,0,0,7.293,7.42l111.254.237a7.358,7.358,0,0,0,7.293-7.42l.219-103.5a7.358,7.358,0,0,0-7.293-7.42l-111.225-.237V136.16m0,0h0l111.239.237a8.829,8.829,0,0,1,8.752,8.9l-.219,103.5a8.829,8.829,0,0,1-8.752,8.9h0l-111.239-.237a8.829,8.829,0,0,1-8.752-8.9l.19-103.5a8.829,8.829,0,0,1,8.752-8.9Z" transform="translate(223.601 65.906)" fill="#c8dbfb"/>
          <path id="Path_427" data-name="Path 427" d="M8.722,96.092l152.255-.569a8.923,8.923,0,0,0,8.807-8.944l.283-76.972A8.765,8.765,0,0,0,161.325.728L9.071,1.3A8.923,8.923,0,0,0,.264,10.241L-.019,87.213A8.765,8.765,0,0,0,8.722,96.092Z" transform="matrix(-0.975, 0.221, -0.221, -0.975, 327.101, 252.412)" fill="#c8dbfb"/>
          <path id="Path_377" data-name="Path 377" d="M122.7,340.045l20.757.044,5.091-26.92-30.822-.059Z" transform="translate(334.01 151.557)" fill="#0056ec"/>
          <path id="Path_378" data-name="Path 378" d="M139.741,313.164c0,2.2.408,5.936-1.036,5.936s-.846-3.5-2.48-3.413c-1.05,0,.5,11.694-3.457,11.976-2.728.193-2.232-5.7-2.509-9.394a1.69,1.69,0,0,0-3.355-.356c0,1.855.088,3.087,0,5.194-.146,3.5-5.455,2.582-5.266-2.122s0-7.865,0-7.865Z" transform="translate(337.074 151.561)" fill="#c8dbfb"/>
          <path id="Path_379" data-name="Path 379" d="M136.678,329.337a5.582,5.582,0,0,0,1.24-.134,4.385,4.385,0,0,0,3.18-2.434c2.115-4.556-3.457-13.119-3.676-13.49l-.277,1.484c0,.089,4.887,7.42,2.917,11.546a3.3,3.3,0,0,1-2.465,1.855,4.072,4.072,0,0,1-1.05.1c-7.468,0-20.247-14.187-20.422-14.351-.525-.638-1.459,0-1.152.5C115.658,315.15,128.64,329.322,136.678,329.337Z" transform="translate(345.096 151.639)" fill="#0c2340"/>
          <path id="Path_380" data-name="Path 380" d="M280.883,76.134c29.509-1.143,70.133,21.058,55.722,75.344.306,4.586-2.392,7.865-5.266,6.96s-.336-9.587-.336-9.587c-4.916-40.366-14.105-47.341-29.713-47.207h-36.6c-9.044,1.365-25.483,7.791-27.948,40.069l-9.117,1.721C226.927,120.046,232.5,78.018,280.883,76.134Z" transform="translate(-17.27 36.831)" fill="#5275a0" opacity="0.2"/>
          <path id="Path_381" data-name="Path 381" d="M280.883,72.954C310.393,71.8,351.017,94,336.605,148.284l-5.6-2.627c-4.916-40.351-14.105-47.341-29.713-47.192h-36.6c-9.044,1.35-25.921,9.513-28.386,41.82h-8.679C226.927,116.867,232.5,74.839,280.883,72.954Z" transform="translate(-17.27 35.292)" fill="#ef832b"/>
          <path id="Path_382" data-name="Path 382" d="M268.888,73.53l4.376,9.809s-.525,5.506-5.835,5.4-6.053-2.642-6.053-2.642l-.686-11.249Z" transform="translate(0.764 35.591)" fill="#ffb9a3"/>
          <path id="Path_383" data-name="Path 383" d="M260.959,72.9c5,8.993,7.206,11.783,13.741,13.134,8.46,1.751,17.956-4.051,13.537-18.358-3.588-11.665-9.029-9.869-14.368-9.424S255.562,63.221,260.959,72.9Z" transform="translate(-13.844 28.017)" fill="#ffb9a3"/>
          <path id="Path_384" data-name="Path 384" d="M286,68.09a3.519,3.519,0,0,1,4.055.994,4.505,4.505,0,0,1,1.123,4.333,3.923,3.923,0,0,1,3.647,4.14c1.459-3.309.642-6.767.919-10.166s-.087-7.079-2.246-9.676a10.849,10.849,0,0,0-3.238-2.538,16.519,16.519,0,0,0-15.054-.223,9.029,9.029,0,0,1-6.783,1.217c-6.433-1.588-10.211,2.849-6.331,7a5.091,5.091,0,0,0-3.18,2.226,1.055,1.055,0,0,0,0,.994,1.207,1.207,0,0,0,.6.371,6.9,6.9,0,0,0,3.384.267c-.423.386-2.815.519-3.545,1.944-1.925,3.769,5.689,1.855,6.856,1.484-1.327.252-4.8,3.072-3.69,5.016.219.386,4.916,3.161,9.846-2.671a9.067,9.067,0,0,1,4.186-3.072,6.68,6.68,0,0,1,4.011.638c.948.356,3.355,1.855,4.041.965S284.451,68.862,286,68.09Z" transform="translate(-19.014 25.775)" fill="#0c2340"/>
          <path id="Path_385" data-name="Path 385" d="M306.967,118.354c1.3,4.586,2.626,5.031,1.036,5.758s-2.917-1.825-2.917-1.825l-7.293,1.484s1.648-4.838,2.8-5.417S306.967,118.354,306.967,118.354Z" transform="translate(-88.821 57.163)" fill="#ffb9a3"/>
          <path id="Path_386" data-name="Path 386" d="M232.8,121.93c-.963,2.419-1.225,2.434-2.553,5.343-2.553,5.55,3.413,14.321,7.118,4.749a27.688,27.688,0,0,0,1.036-7.42Z" transform="translate(80.935 59.019)" fill="#ffb9a3"/>
          <path id="Path_387" data-name="Path 387" d="M288.317,55.638c-5,.267-11.159-3.324-15.083,1.291-.35.43-1.079-.134-.759-.594,3.734-5.476,10.692-1.41,15.841-1.484a.424.424,0,0,1,0,.846Z" transform="translate(-31.764 25.881)" fill="#0c2340"/>
          <path id="Path_388" data-name="Path 388" d="M262.623,53.2c3.428.594,6.724-1.039,10.211-.49a14.889,14.889,0,0,1,7.293,3.755c.54.475-.16,1.41-.758,1.009-2.917-1.974-5.835-3.68-9.467-3.4-2.655.193-4.93.994-7.585.193a.556.556,0,0,1-.379-.683.544.544,0,0,1,.671-.386Z" transform="translate(-8.083 25.457)" fill="#0c2340"/>
          <path id="Path_389" data-name="Path 389" d="M258.326,56.26a8.16,8.16,0,0,1,4.084,6.485c.2,2.092.263,6.93-1.823,8.118a.5.5,0,0,1-.624-.149.526.526,0,0,1,.011-.652c1.342-1.38,1.459-5.105,1.357-6.871a8.112,8.112,0,0,0-3.34-6.337c-.35-.267,0-.846.336-.594Z" transform="translate(15.673 27.202)" fill="#0c2340"/>
          <path id="Path_390" data-name="Path 390" d="M281.341,62.914c1.24-2.182,4.376-4.126,6.841-2.731a.449.449,0,0,1,.181.489.439.439,0,0,1-.4.327,10.7,10.7,0,0,0-3.078.208,5.428,5.428,0,0,0-2.917,2.092c-.277.4-.9,0-.656-.386Z" transform="translate(-44.349 28.903)" fill="#0c2340"/>
          <path id="Path_391" data-name="Path 391" d="M201.065,214.42c-15.477,5.773-28.911,23.834-25.819,36.953,3.472,14.84,13.522,21.222,13.522,21.222l3.18-5.936s-8.037-12.778-7.293-18.818c1.109-9.676,13.128-16.131,13.128-16.131Z" transform="translate(198.249 103.787)" fill="#0b43a4"/>
          <path id="Path_392" data-name="Path 392" d="M147.493,327.14s9.5,3.9,11.874,6.1H140.55v-6.085Z" transform="translate(289.907 158.347)" fill="#0c2340"/>
          <path id="Path_393" data-name="Path 393" d="M173.785,326.89a15.577,15.577,0,0,0-3.195,6.367h12.836a15.34,15.34,0,0,0-2.392-6.367Z" transform="translate(222.029 158.226)" fill="#0c2340"/>
          <path id="Path_394" data-name="Path 394" d="M174.152,362.637H182.9c-.175-10.507,1.955-46.317,4.011-73.089,1.211-15.7,2.407-28.315,3.107-30.868l-4.7-1.054L167.6,253.62C164.583,267.733,171.584,332.467,174.152,362.637Z" transform="translate(220.874 122.761)" fill="#047f76"/>
          <path id="Path_395" data-name="Path 395" d="M174.547,256.907c6.841,10.952,8.606,90.14,11.48,104.817l-8.315.475A779.044,779.044,0,0,0,147.78,256.15Z" transform="translate(252.701 123.986)" fill="#009790"/>
          <path id="Path_396" data-name="Path 396" d="M166.85,256.15c4.011,11.086,7.614,21.934,10.794,32.189,1.211-15.7,2.407-28.315,3.107-30.868l-4.7-1.054Z" transform="translate(230.16 123.986)" fill="#5275a0" opacity="0.2"/>
          <path id="Path_397" data-name="Path 397" d="M174.547,256.907c6.841,10.952,8.606,90.14,11.48,104.817l-8.315.475A779.044,779.044,0,0,0,147.78,256.15Z" transform="translate(252.701 123.986)" fill="#009790"/>
          <path id="Path_398" data-name="Path 398" d="M175.793,198.169s5.324,20.643-7.964,20.643l.788,5.268-10.109,1.128,2.188-7.346s-2.071-13.015-2.071-15.375C158.318,198.139,170.294,190.422,175.793,198.169Z" transform="translate(246.233 94.32)" fill="#ffb9a3"/>
          <rect id="Rectangle_188" data-name="Rectangle 188" width="3.923" height="16.844" transform="matrix(-1, -0.002, 0.002, -1, 458.813, 286.215)" fill="#0c2340"/>
          <rect id="Rectangle_189" data-name="Rectangle 189" width="28.196" height="6.395" rx="1.95" transform="matrix(-1, -0.002, 0.002, -1, 470.982, 269.394)" fill="#0056ec"/>
          <path id="Path_399" data-name="Path 399" d="M138.445,199.264c.117-3.829,3.209-2.82,1.459-9.053-1.05-3.858-8.883.608-7.906,3.28s2.1,6.9,2.1,6.9Z" transform="translate(321.435 91.34)" fill="#ffb9a3"/>
          <path id="Path_400" data-name="Path 400" d="M159.453,222.936c19.882,1.336,21.195,8.162,30.093,7.094,13.128-1.588,10.867-26.46,9.233-35.379h7.862s14.178,56.675-30.632,46.2c1.721,9.928-9.408,26.134,1.386,45.812-17.008,4.7-32.864,5.862-46.444-.089,2.378-3.25-4.872-36.2,9.321-59.9C143.057,222.06,157.994,222.832,159.453,222.936Z" transform="translate(254.507 94.218)" fill="#0056ec"/>
          <path id="Path_401" data-name="Path 401" d="M159.453,222.936c19.882,1.336,21.195,8.162,30.093,7.094,13.128-1.588,10.867-26.46,9.233-35.379h7.862s14.178,56.675-30.632,46.2c1.721,9.928-9.408,26.134,1.386,45.812-17.008,4.7-32.864,5.862-46.444-.089,2.378-3.25-4.872-36.2,9.321-59.9C143.057,222.06,157.994,222.832,159.453,222.936Z" transform="translate(254.507 94.218)" fill="#0056ec"/>
          <path id="Path_402" data-name="Path 402" d="M177.538,203.734c-1.3.341-2.815.594-3.5,1.721a4.219,4.219,0,0,0-.379,2.478,1.961,1.961,0,0,0-3.866.386,3.462,3.462,0,0,0,.292,1.261,15.593,15.593,0,0,0,1.459,2.864c-1.619.608-2.917,5.432-3.793,6.945-2.728-.7-8.752-3.087-9.336-12.926-.248-4.586,1.123-10.077,6.01-13.134,3.457-2.152,9.19-2.182,13.128-1.158,3.195.831,8.314,4.1,5.922,7.9A10.009,10.009,0,0,1,177.538,203.734Z" transform="translate(239.164 92.702)" fill="#ef832b"/>
          <path id="Path_403" data-name="Path 403" d="M207.842,195.64a4.729,4.729,0,0,0-5.31,1.276,10.683,10.683,0,0,0-1.065,4.3,3.317,3.317,0,0,1-.919,1.914,3.906,3.906,0,0,1-2.451.772,54.261,54.261,0,0,0-6.418.208,5.843,5.843,0,0,0-4.872,3.577c-.335,1.113-.16,2.33-.554,3.428-.6,1.632-2.3,2.553-3.793,3.5a24.883,24.883,0,0,0-7.8,7.91,14.583,14.583,0,0,0-2.348,6.559c-.146,2.33-1.794,5.417-1.357,7.7s2.917,5.832,7.6,7.42c8.169,2.686,10.765,3.844,18.6-.89.934-.579,2.786-2.523,3.632-3.206a4.284,4.284,0,0,0,1.342-2.152,9.152,9.152,0,0,0-1.284-6.841c-1.167-2.078-2.757-3.918-3.953-5.936a7.511,7.511,0,0,1-1.225-4.051,2.054,2.054,0,0,1,.54-1.484,2.287,2.287,0,0,1,1.254-.579c1.721-.356,3.618,0,5.178-.772a3.718,3.718,0,0,0,1.882-4.23c-.306-1.068-1.109-1.974-1.327-3.057a4.178,4.178,0,0,1,1.984-4.1,11.269,11.269,0,0,1,4.609-1.484,5.3,5.3,0,0,0,2.275-.742,3.169,3.169,0,0,0,1.152-2.567C213.167,198.905,210.7,196.6,207.842,195.64Z" transform="translate(191.822 94.533)" fill="#ef832b"/>
          <path id="Path_404" data-name="Path 404" d="M186.485,201.289c-9.846,2.167,2.582,11.65-2.626,16.191-1.459,1.291-3.209.876-4.945,1.128-6.681.935-3.034,5.55-2.567,9.171a.486.486,0,0,1-.948.134c-.569-2.508-2.815-5.55-1.648-8.222,1.021-2.33,3.559-2.063,5.63-2.122,2.611-.089,5.485,0,4.507-5.283a19.912,19.912,0,0,0-1.59-3.458,6.646,6.646,0,0,1-.569-3.933,5.341,5.341,0,0,1,4.609-4.126c.335,0,.481.445.146.519Z" transform="translate(214.653 97.18)" fill="#ef832b"/>
          <path id="Path_405" data-name="Path 405" d="M181.785,194.068c-7.585-3.918-15.141-3.146-21.545,2.612a.448.448,0,0,1-.642,0,.467.467,0,0,1,0-.653A16.613,16.613,0,0,1,182,193.7a.225.225,0,0,1,.034.273A.217.217,0,0,1,181.785,194.068Z" transform="translate(239.614 92.158)" fill="#ef832b"/>
          <path id="Path_406" data-name="Path 406" d="M337.661,209.18l3.3,6.723-8.037,3.339-.861-7.732Z" transform="translate(-171.036 101.251)" fill="#ffb9a3"/>
          <path id="Path_407" data-name="Path 407" d="M338.567,194.43c18.219,8.073,10.75,27.618-.335,25.333-5.412-1.128-8.14-18.8-8.14-18.8Z" transform="translate(-176.784 94.111)" fill="#ffb9a3"/>
          <path id="Path_408" data-name="Path 408" d="M350.517,193.813a9.813,9.813,0,0,1,2.144-3.146,2.721,2.721,0,0,1,3.486-.178c1.225,1.158.511,3.324-.744,4.452,1.079.134,2.348-.623,3.136.119s.379,1.573,0,2.33a10.129,10.129,0,0,1-3.734,4.348c.919.534,2,1.573,1.459,2.493-.16.252-.409.43-.569.7-.35.594,0,1.35.35,1.959.569.965,1.2,1.9,1.852,2.8a1.6,1.6,0,0,0-1.423-.46,1.623,1.623,0,0,0-1.188.92,2.87,2.87,0,0,0,.656,2.968,2.912,2.912,0,0,0,1.459.95c.511.119,2.713,7.064.992,8.429-2.13,1.677-9.365.223-10.415-1.677a4.572,4.572,0,0,1-4.1,1.721,2.528,2.528,0,0,1-1.766-1.319,2.607,2.607,0,0,1-.086-2.228,4.213,4.213,0,0,1-4.76-1.283,4.394,4.394,0,0,1-.389-4.994c-.89-.267-1.065-1.484-.846-2.419a5.61,5.61,0,0,1,3.778-3.948A1.872,1.872,0,0,1,338.1,204.5a3.939,3.939,0,0,1,1.021-2.552A8.448,8.448,0,0,1,345.4,198.9C347.979,198.606,349.379,195.965,350.517,193.813Z" transform="translate(-194.788 91.938)" fill="#4a49ca"/>
          <path id="Path_409" data-name="Path 409" d="M332.646,326.27s10.663,5.209,12.092,6.827c0,0-20.976.965-22.61,0s3.355-6.8,3.355-6.8Z" transform="translate(-159.85 157.926)" fill="#0c2340"/>
          <path id="Path_410" data-name="Path 410" d="M361.789,322.794s9.379,7.346,10.444,9.231c0,0-22.114-3.339-22.114-4.808s4.668-5.936,4.668-5.936Z" transform="translate(-228.655 155.511)" fill="#0c2340"/>
          <path id="Path_411" data-name="Path 411" d="M374.117,260.538c.394,2.211,14.981,60.845-26.781,95.973l-12.092-2.82s14.076-13.356,20.713-37.605c6.272-22.869,1.284-25.11-2.48-37.709-4.157-13.935-1.065-24.056-1.065-24.056Z" transform="translate(-211.62 123.1)" fill="#d8742a"/>
          <path id="Path_412" data-name="Path 412" d="M344.217,258.806c6.622,16.1,17.986,70.952-6.783,101.849h-12.37s9.744-10.863,10.823-36.077-5.208-36.27-9.656-44.6-8.548-22.453-8.548-22.453Z" transform="translate(-161.765 124.654)" fill="#ef832b"/>
          <path id="Path_413" data-name="Path 413" d="M339.23,191.14c3.3,11.783,4.376,33.569-12.092,42.34l-11.013-2.731s19.867-10.6,15.608-37.368Z" transform="translate(-148.055 92.519)" fill="#0b43a4"/>
          <path id="Path_414" data-name="Path 414" d="M379.722,187.419l-8.548-1.068s1.036,36.581-40.449,39.55c-31.668,2.36-34.148,62.8-34.148,62.8,10.211,6.99,27.336,9.112,49.289,7.509,0,0-1.459-43.126,2.086-54.909C347.952,241.348,382.42,230.352,379.722,187.419Z" transform="translate(-158.191 90.2)" fill="#0056ec"/>
          <path id="Path_415" data-name="Path 415" d="M307.354,182.789c1.459,1.707-4.595,3.873-10.459,6.634l-7.5-.935q-.077-1.557,0-3.116c.1-1.588.875-2.508,1.765-1.143s4.7,1.84,6.477.594S305.91,181.082,307.354,182.789Z" transform="translate(-75.365 88.196)" fill="#ffb9a3"/>
          <path id="Path_416" data-name="Path 416" d="M326.3,192.753c2.757-2.76,2.028-2.582,2.028-2.582l-8.387,1.929s-1.853-4.17-3.413-4.289,1.182,2.879.554,3.977,1.721,3.206,1.721,3.206Z" transform="translate(-135.126 90.906)" fill="#ffb9a3"/>
          <path id="Path_417" data-name="Path 417" d="M352.716,195.533a11.718,11.718,0,0,0-4.9,1.825,3.8,3.8,0,0,0-1.036,4.868c.481.772-.656,1.38-1.167.7a4.723,4.723,0,0,1,.365-5.743,7.656,7.656,0,0,1,6.637-2.419A.4.4,0,0,1,352.716,195.533Z" transform="translate(-201.669 94.24)" fill="#4a49ca"/>
          <path id="Path_418" data-name="Path 418" d="M352.018,206.211a2.772,2.772,0,0,0-1.619,3.22c.452,1.321,1.78,2.107,2.844,2.864a.51.51,0,0,1,.116.647.492.492,0,0,1-.612.214,5.74,5.74,0,0,1-3.486-3.977,3.835,3.835,0,0,1,2.29-3.769A.464.464,0,0,1,352.018,206.211Z" transform="translate(-208.586 99.397)" fill="#4a49ca"/>
          <path id="Path_419" data-name="Path 419" d="M349.65,212.649a10.079,10.079,0,0,1-12.53-1.38c-.394-.43.146-1.232.642-.846a11.007,11.007,0,0,0,11.567,1.677C349.694,211.952,350,212.427,349.65,212.649Z" transform="translate(-187.065 101.803)" fill="#4a49ca"/>
          <path id="Path_420" data-name="Path 420" d="M351.358,197.109c-2.217,2.152,0,5.09,1.459,6.93.306.416-.19.965-.569.594a7.261,7.261,0,0,1-2.713-4.452,3.387,3.387,0,0,1,1.648-3.384c.16-.089.35.119.2.252Z" transform="translate(-208.436 95.246)" fill="#4a49ca"/>
          <path id="Path_421" data-name="Path 421" d="M208.667,21.251l3.413-8.5L179.07,0Z" transform="translate(181.006)" fill="#0b43a4"/>
          <path id="Path_422" data-name="Path 422" d="M210.484,16.013,182.55,0l19.444,20.094Z" transform="translate(177.526)" fill="#5193f4"/>
          <path id="Path_423" data-name="Path 423" d="M214.456,9.29,173.89,0,206.9,12.748Z" transform="translate(186.186)" fill="#5193f4"/>
          <path id="Path_424" data-name="Path 424" d="M184.794,10.79l1.663,5.239-5.047-3.621Z" transform="translate(203.216 5.223)" fill="#0056ec"/>
          <path id="Path_425" data-name="Path 425" d="M170.689,13.6c8.606-1.484,20.3,7.42,15.272,16.621-1.707,3.146-10.546,1.781-9.89-1.692.321-1.662,2.319-2.374,3.982-2.182,9.627,1.128,10.007,9.335,9.584,11.427-2.2,10.8-18.481,7.153-23.952,5.624" transform="translate(222.863 6.506)" fill="none" stroke="#c8dbfb" stroke-linecap="round" stroke-linejoin="round" stroke-width="1" stroke-dasharray="4"/>
        </g>
      </g>
    </g>
  </g>
</svg>
