<svg width="1920" height="1080" xmlns="http://www.w3.org/2000/svg">
 <defs>
  <style>.cls-1{isolation:isolate;}.cls-2{fill:#c8dbfb;}.cls-11,.cls-15,.cls-16,.cls-3,.cls-4,.cls-6,.cls-8{fill:none;stroke-linecap:round;stroke-linejoin:round;}.cls-16,.cls-3,.cls-4{stroke:#c8dbfb;}.cls-4{stroke-dasharray:3.99 3.99;}.cls-5{fill:#5193f4;}.cls-15,.cls-6{stroke:#0b43a4;}.cls-7{fill:#00ad9f;}.cls-11,.cls-8{stroke:#00ad9f;}.cls-12,.cls-8{mix-blend-mode:multiply;}.cls-9{fill:#0056ec;}.cls-10{fill:#52d2bc;}.cls-12{fill:#5275a0;opacity:0.2;}.cls-13{fill:#7ee8d4;}.cls-14{fill:#4a49ca;}.cls-15,.cls-16{stroke-dasharray:4;}.cls-17{fill:#0b43a4;}.cls-18{fill:#fff;}.cls-19{fill:#0c2340;}.cls-20{fill:#ef832b;}.cls-21{fill:#ffb9a3;}.cls-22{fill:#047f76;}.cls-23{fill:#009790;}.cls-24{fill:#d8742a;}</style>
 </defs>
 <title>background image</title>
 <g>
  <title>background</title>
  <rect fill="none" id="canvas_background" height="1082" width="1922" y="-1" x="-1"/>
 </g>
 <g>
  <title>Layer 1</title>
  <g id="svg_1" class="cls-1">
   <g id="Layer_2">
    <g id="OBJECTS">
     <ellipse id="svg_2" ry="4.71797" rx="50.51235" cy="622.46822" cx="48.63113" class="cls-2"/>
     <ellipse id="svg_3" ry="4.71797" rx="50.51235" cy="622.46822" cx="308.11954" class="cls-2"/>
     <path id="svg_4" d="m414.84239,290.27601c-0.14376,-0.87563 -0.30059,-1.7382 -0.47049,-2.61383" class="cls-3"/>
     <path id="svg_5" d="m413.13033,282.57827c-9.01773,-30.68642 -37.74377,-27.71971 -63.71221,-27.66744l-460.70137,0.95405c-43.48113,0.07842 -39.20752,62.86272 -5.22767,62.79737c19.60376,0 27.02705,36.72437 -6.82211,36.78972c-20.30949,0 -20.91067,25.78548 -7.30567,30.9478" class="cls-4"/>
     <path id="svg_6" d="m-128.12942,387.0663a15.17331,15.17331 0 0 0 2.61383,0.22218" class="cls-3"/>
     <path id="svg_7" d="m-120.18336,386.09918a6.26013,6.26013 0 1 1 -7.22725,-5.12312a6.2732,6.2732 0 0 1 7.22725,5.12312z" class="cls-5"/>
     <path id="svg_8" d="m420.99797,293.03361a6.26013,6.26013 0 1 1 -5.03163,-7.27953a6.2732,6.2732 0 0 1 5.03163,7.27953z" class="cls-5"/>
     <path id="svg_9" d="m-56.37966,340.38322a109.04917,109.04917 0 0 1 -3.82927,14.95113a254.69202,254.69202 0 0 1 -13.06917,30.80404c-2.52235,5.22767 -12.75551,17.40814 -18.29684,19.72138a283.95389,283.95389 0 0 0 -0.90177,-43.55955c-1.52909,-13.33056 3.26729,-23.43302 -1.96038,-35.79646c-0.66653,-1.58137 -1.30692,-3.16274 -2.05186,-4.74411c-2.61383,-5.88113 -5.22767,-11.76225 -5.98568,-18.12694c-1.04553,-8.03754 1.45068,-17.19903 8.40348,-21.38116c5.00549,-3.00591 11.52701,-2.84908 16.8723,-0.48356a31.36601,31.36601 0 0 1 12.8862,11.54008c9.14842,13.53966 10.79514,31.02621 7.93299,47.07516z" class="cls-5"/>
     <path id="svg_10" d="m-80.70139,295.97417c10.24623,14.4545 11.12187,31.2876 12.01057,48.98326a94.37249,94.37249 0 0 1 -12.10205,50.96977" class="cls-6"/>
     <path id="svg_11" d="m-81.11961,562.55914c-7.17498,-6.33855 -14.37609,-12.76858 -19.73445,-20.74078c-4.61342,-6.93973 -7.59319,-14.82044 -11.61849,-22.12611c-2.61383,-4.71797 -5.68509,-9.26604 -7.18804,-14.4545s-1.15009,-11.30483 2.52235,-15.25172s10.45534,-4.74411 15.68301,-2.61383s9.14842,6.53459 12.24581,11.23949a53.50519,53.50519 0 0 1 7.8415,20.81919c1.0194,6.69142 0.77108,13.52659 1.80355,20.21801a67.68524,67.68524 0 0 0 5.71123,17.9309c2.39166,5.22767 8.45575,14.37609 10.01099,19.73445c-4.29976,2.13027 -14.21926,-12.04978 -17.27745,-14.75509z" class="cls-7"/>
     <path id="svg_12" d="m-106.22549,496.83427c6.82211,2.97977 9.52743,11.12187 10.95197,18.42753c1.62058,8.31199 1.30692,17.31665 5.07084,24.83143c7.18804,14.25847 16.5325,30.47731 23.52451,35.28676" class="cls-8"/>
     <path id="svg_13" d="m-116.41944,543.05993c-5.95954,-2.33938 -13.9056,-3.3065 -17.7218,1.82968c-3.18888,4.29976 -1.54216,10.38999 0.66653,15.27786c1.86889,4.11679 4.23441,8.31199 8.16823,10.54682a23.30233,23.30233 0 0 0 8.88704,2.36552a215.52371,215.52371 0 0 0 25.79855,1.48989a54.06716,54.06716 0 0 1 30.35969,10.27237c-10.61217,-19.70831 -36.12319,-33.86222 -56.15823,-41.78214z" class="cls-9"/>
     <path id="svg_14" d="m-126.86171,555.88079c7.58012,0.32673 15.22559,0.8495 22.49204,3.00591s36.04478,15.33014 40.51443,20.91067" class="cls-6"/>
     <path id="svg_15" d="m-51.49179,502.61085a50.46007,50.46007 0 0 0 -35.28676,-22.51818c-10.53375,-1.41147 -21.3681,0.56197 -31.77116,-1.63365a40.51443,40.51443 0 0 1 -30.45117,-51.24422c2.44394,-8.12902 8.02447,-15.82677 16.10122,-18.4406a25.5633,25.5633 0 0 1 13.70956,-0.14376a38.34495,38.34495 0 0 1 11.56622,5.00549c8.12902,5.14925 14.70282,13.06917 19.60376,21.48572c4.48273,7.64547 15.53925,19.60376 23.06709,27.28843c4.40431,4.535 7.61933,7.61933 7.61933,7.61933c5.20153,6.41696 2.78373,24.93598 5.84192,32.58145z" class="cls-10"/>
     <path id="svg_16" d="m-135.25212,432.28563c25.31499,11.42246 52.93015,26.39973 70.87412,47.59792" class="cls-11"/>
     <path id="svg_17" d="m-61.94713,477.03448s-37.74377,-30.58186 -45.67676,-63.39855c8.12902,5.14925 14.70282,13.06917 19.60376,21.48572c4.48273,7.64547 15.53925,19.60376 23.06709,27.28843c0.92791,4.11679 1.85582,8.92624 3.00591,14.6244z" class="cls-12"/>
     <path id="svg_18" d="m-60.20893,355.33435a254.69202,254.69202 0 0 1 -13.06917,30.80404c-2.52235,5.22767 -12.75551,17.40814 -18.29684,19.72138a283.95389,283.95389 0 0 0 -0.90177,-43.55955c-1.52909,-13.33056 3.26729,-23.43302 -1.96038,-35.79646c-0.66653,-1.58137 -1.30692,-3.16274 -2.05186,-4.74411c0.48356,0.15683 0.95405,0.32673 1.41147,0.52277c8.59952,3.68551 12.57254,12.78165 13.30442,21.61641c0.61425,7.2926 -0.70574,14.59826 -1.68592,21.85166a28.8698,28.8698 0 0 0 -0.10455,10.05019a0.31366,0.31366 0 0 1 0,0.10455a3.76392,3.76392 0 0 0 7.34487,-0.27445l2.35245,-12.1674c0.6796,-3.63323 1.42454,-7.43636 4.40431,-9.97178a6.28627,6.28627 0 0 1 4.23441,-1.58137a5.80271,5.80271 0 0 1 5.01856,3.42412z" class="cls-12"/>
     <path id="svg_19" d="m-61.94713,469.32367c-5.95954,-31.1177 -9.08307,-35.91408 -6.46924,-43.70331c3.34571,-9.94564 1.46375,-19.94356 4.61342,-29.94147s5.29301,-20.71464 2.7576,-30.90859c-0.81029,-3.21502 -2.43087,-6.71755 -6.29934,-6.86132a6.28627,6.28627 0 0 0 -4.23441,1.63365c-2.97977,2.53542 -3.73778,6.33855 -4.41738,9.97178l-2.27404,12.14126a3.76392,3.76392 0 0 1 -7.34487,0.27445l0,-0.10455a28.85673,28.85673 0 0 1 0.09148,-10.05019c0.98019,-7.25339 2.30017,-14.55906 1.69899,-21.85166c-0.73187,-8.83476 -4.7049,-17.9309 -13.31749,-21.61641a15.16024,15.16024 0 0 0 -9.69733,-0.77108c-8.97852,2.30017 -11.30483,11.08266 -9.98485,18.57129c0.91484,5.22767 3.39798,10.12861 5.63281,14.99034c5.46291,11.87988 1.45068,22.77957 2.20869,35.83567c2.06493,35.9925 47.03595,72.39014 47.03595,72.39014z" class="cls-13"/>
     <path id="svg_20" d="m-102.01721,336.91989c4.43045,22.13918 8.91318,44.43518 17.51269,65.34586c2.52235,6.12944 3.76392,14.18005 18.36219,30.84325" class="cls-11"/>
     <path id="svg_21" d="m70.82258,342.5527c-4.58728,-5.22767 -8.82169,-10.57296 -13.27828,-15.68301c-2.88829,-3.33264 -5.86806,-6.53459 -9.14842,-9.67119c-1.60751,-1.54216 -3.26729,-3.03205 -5.01856,-4.48273a140.92488,140.92488 0 0 0 -34.2543,-20.91067c-7.44943,-3.18888 -15.31707,-5.81578 -21.64255,-10.89969s-10.83434,-13.40897 -8.75635,-21.2374c1.52909,-5.64588 6.32548,-10.03712 11.76225,-12.04978a31.4575,31.4575 0 0 1 17.29051,-0.61425c15.94439,3.43719 29.26188,14.89886 38.31881,28.45159l0.48356,0.73187c6.63914,10.12861 11.2787,21.39423 15.31707,32.86897c1.30692,3.68551 2.52235,7.39715 3.73778,11.09573c1.96038,5.52826 7.54091,16.96378 5.18846,22.40056z" class="cls-5"/>
     <path id="svg_22" d="m-2.11646,260.3084c17.39507,3.31957 29.70623,14.83351 42.6055,26.9617a94.4509,94.4509 0 0 1 26.63497,45.14092" class="cls-6"/>
     <path id="svg_23" d="m57.54431,326.86969a20.58395,20.58395 0 0 0 0.24831,5.43678c-4.35203,-0.99326 -7.37101,-7.75002 -9.35753,-15.10796a113.5711,113.5711 0 0 1 -3.21502,-18.45367a79.83957,79.83957 0 0 1 1.46375,-22.55739c6.63914,10.12861 11.2787,21.39423 15.31707,32.86897q-2.078,6.16865 -3.55481,12.49413a36.31923,36.31923 0 0 0 -0.90177,5.31915z" class="cls-12"/>
     <path id="svg_24" d="m87.72102,264.13767c-1.46375,6.53459 -5.41064,12.15433 -8.87397,17.87863c-1.84275,3.00591 -3.54175,6.1033 -5.13618,9.2399a140.12766,140.12766 0 0 0 -11.57929,31.65353a25.65478,25.65478 0 0 0 -0.64039,10.769c-8.57338,-1.94731 -11.98443,-26.32131 -12.57254,-33.5747a78.9378,78.9378 0 0 1 6.53459,-38.35802c2.35245,-5.22767 5.37143,-10.45534 10.03712,-13.74877s11.23949,-4.535 16.16657,-1.60751a13.06917,13.06917 0 0 1 5.80271,8.0114a19.96969,19.96969 0 0 1 0.26138,9.73653z" class="cls-10"/>
     <path id="svg_25" d="m58.21083,326.43841c-5.33222,-13.3959 -2.10414,-41.74293 6.45617,-59.55622c2.61383,-5.35836 6.24706,-10.45534 11.38325,-13.3959" class="cls-11"/>
     <path id="svg_26" d="m87.72102,264.13767c-1.46375,6.53459 -5.41064,12.15433 -8.87397,17.87863c-1.84275,3.00591 -3.54175,6.1033 -5.13618,9.2399a31.09156,31.09156 0 0 1 -4.39124,-12.847c-0.7188,-7.59319 2.18255,-15.68301 8.3512,-20.20494a22.53125,22.53125 0 0 1 9.81495,-3.80313a19.96969,19.96969 0 0 1 0.23525,9.73653z" class="cls-12"/>
     <path id="svg_27" d="m137.18784,320.8056a27.62823,27.62823 0 0 1 -2.22176,7.21418c-3.80313,8.23358 -11.76225,15.304 -23.74669,21.04137c0,0 -0.66653,-13.06917 -0.79722,-16.49329c-0.58811,-14.92499 -16.78082,-23.18471 -27.02705,-34.05826c-5.22767,-5.5544 -9.14842,-12.57254 -9.90643,-20.15266s2.16948,-15.68301 8.3512,-20.20494c5.22767,-3.72471 11.94522,-4.54807 18.29684,-4.06451c10.27237,0.82336 20.63622,5.12312 27.01398,13.14759a9.95871,9.95871 0 0 1 0.75801,0.94098c3.92075,5.34529 5.92033,11.85374 7.39715,18.29684c2.57463,11.26563 3.72471,22.94947 1.88196,34.33271z" class="cls-7"/>
     <path id="svg_28" d="m86.24421,266.16339c11.20028,5.78964 22.43977,12.80779 28.96128,23.60292c9.14842,15.06876 7.1227,34.67251 0.10455,50.81294" class="cls-8"/>
     <path id="svg_29" d="m324.73045,417.04698c7.14884,-11.76225 3.48947,-26.88329 5.98568,-40.42295a44.67043,44.67043 0 0 1 15.9836,-26.63497c5.22767,-4.12986 12.49413,-7.08349 18.37526,-3.92075c1.30692,0.66653 2.78373,1.62058 4.01224,0.86257a3.20195,3.20195 0 0 0 1.18929,-2.19562c1.48989,-7.31874 -2.02572,-15.304 0.8495,-22.21759c1.54216,-3.69858 4.74411,-6.53459 8.12902,-8.62565a44.30449,44.30449 0 0 1 21.917,-6.87438a12.15433,12.15433 0 0 1 6.03796,0.91484c3.31957,1.65978 4.83559,5.80271 4.39124,9.48822a20.91067,20.91067 0 0 1 -4.74411,9.93257c-7.5017,9.81495 -18.49288,18.29684 -19.94356,30.55572a7.90685,7.90685 0 0 0 0.53584,4.57421c0.6796,1.30692 1.96038,2.28711 2.67918,3.62016c2.31324,4.24748 -2.15641,9.05694 -6.53459,11.148a37.79604,37.79604 0 0 1 -12.70323,3.51561c-3.03205,0.28752 -6.4431,0.35287 -8.50803,2.61383c-3.79006,4.12986 0.57504,10.72979 -0.22218,16.28419c-0.49663,3.46333 -3.01898,6.26013 -5.54133,8.691a99.32571,99.32571 0 0 1 -15.29093,12.04978c-4.44352,2.84908 -9.14842,5.35836 -13.06917,8.87397s-7.10963,8.24665 -7.37101,13.51352" class="cls-10"/>
     <path id="svg_30" d="m334.2056,405.62452c1.17623,-5.69816 3.82927,-10.9781 6.4431,-16.16657c4.10372,-8.11596 8.29892,-16.34953 14.49371,-23.00174c4.7049,-5.05777 10.45534,-9.05694 15.22559,-14.03629a51.98917,51.98917 0 0 0 8.59952,-11.94522a41.25938,41.25938 0 0 1 3.9861,-6.92666c1.97344,-2.47007 4.69183,-4.23441 7.05735,-6.35162a30.32048,30.32048 0 0 0 7.47557,-10.31158" class="cls-11"/>
     <path id="svg_31" d="m427.33652,425.22828c-1.60751,6.19479 -3.99917,12.32423 -8.10289,17.23824a36.77665,36.77665 0 0 1 -10.22009,8.24665a57.50436,57.50436 0 0 1 -6.18172,3.01898a74.21983,74.21983 0 0 1 -25.83775,5.7243c-12.91234,0.48356 -26.13834,-2.36552 -38.5802,1.30692a38.01822,38.01822 0 0 0 -15.22559,8.82169a37.03803,37.03803 0 0 0 -6.83518,8.63872l1.68592,-10.71672c3.12353,-11.52701 6.31241,-23.26313 12.69017,-33.3656a87.78563,87.78563 0 0 1 15.14717,-17.48655a126.35275,126.35275 0 0 1 30.28127,-21.17206c8.99159,-4.3651 18.97644,-7.43636 28.90901,-6.22093s19.60376,7.47557 22.7665,16.98992c1.98651,6.1033 1.12395,12.76858 -0.49663,18.97644z" class="cls-5"/>
     <path id="svg_32" d="m326.48172,459.36496a78.41503,78.41503 0 0 1 39.76949,-30.20286c10.01099,-3.33264 20.61008,-4.61342 30.75176,-7.54091s20.27029,-7.8415 26.21676,-16.62399" class="cls-6"/>
     <path id="svg_33" d="m332.72879,562.31082c0.56197,-14.37609 8.0114,-27.71971 17.06834,-38.9592c7.54091,-9.3706 16.65012,-17.94397 27.90268,-22.21759c3.51561,-1.30692 7.38408,-2.2479 11.04345,-1.30692s6.97894,4.03837 7.04428,7.8415c0.06535,3.17581 -2.078,5.95954 -4.3259,8.20744c-7.38408,7.41022 -16.98992,12.15433 -25.9031,17.56497c-15.39548,9.30525 -30.0591,21.73403 -36.13626,38.64554" class="cls-10"/>
     <path id="svg_34" d="m338.42695,549.69907c9.4098,-20.98909 33.75767,-39.75642 49.83275,-42.0958" class="cls-11"/>
     <path id="svg_35" d="m326.84766,573.77249c-0.13069,-2.4178 7.75002,-8.73021 9.52743,-10.35078a91.32737,91.32737 0 0 1 33.87529,-19.35544c4.99242,-1.5683 10.29851,-2.70532 15.304,-1.50295s9.5797,5.30608 10.07633,10.70365s-3.03205,10.33771 -7.51477,12.87313s-9.71039,2.91443 -14.70282,2.61383c-7.71081,-0.45742 -15.29093,-2.36552 -23.04095,-2.31324s-18.6105,0.90177 -23.52451,7.33181z" class="cls-7"/>
     <path id="svg_36" d="m334.87213,566.42761c15.82677,-8.57338 39.75642,-14.15391 57.13842,-12.04978" class="cls-8"/>
     <path id="svg_37" d="m137.18784,320.8056a27.62823,27.62823 0 0 1 -2.22176,7.21418a125.79078,125.79078 0 0 1 -11.61849,-46.01655a25.51102,25.51102 0 0 1 3.82927,-14.76816a9.95871,9.95871 0 0 1 0.75801,0.94098c3.92075,5.34529 5.92033,11.85374 7.39715,18.29684c2.54849,11.26563 3.69858,22.94947 1.85582,34.33271z" class="cls-12"/>
     <path id="svg_38" d="m191.9346,320.15214c11.8276,-4.20827 24.09955,-7.55398 34.84241,-14.02322a30.608,30.608 0 0 0 8.691,-7.24032a14.57213,14.57213 0 0 0 3.20195,-10.61217c-0.52277,-3.8162 -2.9667,-7.47557 -2.14334,-11.25256c0.54891,-2.48314 2.40473,-4.41738 3.82927,-6.53459a20.80612,20.80612 0 0 0 2.67918,-17.35586c-1.85582,-6.22093 -6.53459,-11.20028 -9.14842,-17.13368a28.50386,28.50386 0 0 1 -2.20869,-15.55231c-9.9195,0.13069 -18.97644,5.54133 -28.75218,7.35794c-7.4625,1.37226 -15.22559,0.62732 -22.60967,2.32631a35.66577,35.66577 0 0 0 -26.5827,28.64762a19.60376,19.60376 0 0 0 -17.32972,5.80271a25.52409,25.52409 0 0 0 -6.79597,18.63664c3.04512,48.91791 31.05235,74.49428 31.05235,74.49428s26.76566,-35.96636 31.27453,-37.5608z" class="cls-13"/>
     <path id="svg_39" d="m165.49566,319.79927c-1.2285,-12.06285 2.99284,-23.98193 7.8415,-35.1038c4.71797,-10.84741 10.14168,-21.47265 17.43428,-30.76483s16.55864,-17.29051 27.44526,-21.77324" class="cls-11"/>
     <path id="svg_40" d="m176.06862,239.55456a97.39147,97.39147 0 0 0 2.43087,34.17588" class="cls-11"/>
     <path id="svg_41" d="m180.45987,269.8881c12.28502,-7.8415 31.18304,-12.66403 45.7421,-11.84067" class="cls-11"/>
     <path id="svg_42" d="m150.41384,271.90076c14.7943,6.23399 15.40855,27.9811 15.80063,34.16281" class="cls-11"/>
     <path id="svg_43" d="m170.23977,292.23639c11.3179,-8.11596 27.68051,-10.55989 39.71721,-7.54091" class="cls-11"/>
     <path id="svg_44" d="m201.12223,233.97402a17.87863,17.87863 0 0 0 -3.92075,12.65096" class="cls-11"/>
     <path id="svg_45" d="m200.42956,243.55372c5.22767,-2.61383 12.19354,-3.28036 19.60376,-1.41147" class="cls-11"/>
     <path id="svg_46" d="m-90.54248,267.20892c1.3984,-0.07842 10.87355,-7.09656 14.51985,-9.46208a9.93257,9.93257 0 0 0 2.7968,-2.35245a3.51561,3.51561 0 0 0 0.52277,-3.46333a4.35203,4.35203 0 0 0 -4.43045,-2.74453c-4.73104,0 -6.36469,1.5683 -8.66486,3.92075c-7.61933,7.88071 -4.74411,14.10164 -4.74411,14.10164z" class="cls-14"/>
     <path id="svg_47" d="m-48.0546,295.50368c4.11679,1.85582 8.53417,3.71164 13.06917,3.1366c1.75127,-0.22218 3.6463,-1.0194 4.22134,-2.61383a3.92075,3.92075 0 0 0 -1.30692,-4.0253a9.29218,9.29218 0 0 0 -4.06451,-1.82968c-5.48905,-1.30692 -13.19986,-0.60118 -18.64971,0.94098a47.04902,47.04902 0 0 0 6.73062,4.39124z" class="cls-14"/>
     <path id="svg_48" d="m-20.87072,234.56213c-1.84275,-1.16316 -3.92075,-2.71839 -3.92075,-4.90094s2.27404,-3.84234 4.45659,-3.85541a9.14842,9.14842 0 0 1 5.85499,2.61383c6.93973,6.09023 6.07716,13.06917 6.07716,13.06917s-10.41613,-5.63281 -12.46799,-6.92666z" class="cls-14"/>
     <path id="svg_49" d="m-15.39474,215.9647a8.97852,8.97852 0 0 1 -4.23441,-3.01898a2.87522,2.87522 0 0 1 -0.43128,-2.39166c0.47049,-1.30692 1.30692,-2.61383 4.71797,-1.94731c10.78207,1.96038 13.06917,9.34446 13.06917,9.34446s-10.2593,-0.75801 -13.12145,-1.98651z" class="cls-14"/>
     <path id="svg_50" d="m16.19345,232.2881a16.98992,16.98992 0 0 0 11.51394,-5.8942a10.57296,10.57296 0 0 0 2.31324,-4.28669a4.65263,4.65263 0 0 0 -1.30692,-4.50886a4.78332,4.78332 0 0 0 -5.59361,0a11.38325,11.38325 0 0 0 -3.55481,4.71797c-1.15009,2.37859 -3.37185,9.97178 -3.37185,9.97178z" class="cls-14"/>
     <path id="svg_51" d="m-61.03229,389.99379l-31.36601,-27.69357c-5.58054,-4.92708 -11.2787,-9.98485 -14.80737,-16.5325c-7.64547,-14.0755 -3.26729,-32.35927 6.99201,-44.63122s25.35419,-19.51227 40.39681,-24.77915s30.81711,-8.96545 45.20627,-15.94439c9.01773,-4.3651 18.16615,-10.88662 20.58395,-20.59701a20.57088,20.57088 0 0 0 -18.70198,-25.60251" class="cls-6"/>
     <path id="svg_52" d="m23.51218,222.31632c-2.86215,8.79555 -14.01015,14.14084 -19.09406,21.7471" class="cls-6"/>
     <path id="svg_53" d="m-16.50562,232.36651c2.19562,2.31324 4.82252,4.22134 6.74369,6.7829c4.03837,5.39757 4.37817,14.15391 -1.60751,19.60376" class="cls-6"/>
     <path id="svg_54" d="m-72.8991,281.54581a59.79146,59.79146 0 0 0 33.03887,12.32423" class="cls-6"/>
     <path id="svg_55" d="m-94.04502,294.51042a32.59451,32.59451 0 0 1 10.96504,-35.53508" class="cls-6"/>
     <path id="svg_56" d="m243.67545,241.51493a4.63956,4.63956 0 0 1 0.6796,-4.62649a3.42412,3.42412 0 0 1 3.62016,-0.81029c9.14842,4.05144 8.19437,18.37526 8.19437,18.37526s-8.71714,-1.25464 -12.49413,-12.93848z" class="cls-14"/>
     <path id="svg_57" d="m243.45327,268.35901c-5.95954,10.74286 15.18638,9.9195 22.79264,3.62016c0,0 -17.66952,-12.86007 -22.79264,-3.62016z" class="cls-14"/>
     <path id="svg_58" d="m270.16666,242.32522c-1.43761,-1.96038 -1.94731,-4.88787 -0.39208,-6.75676a5.22767,5.22767 0 0 1 4.96629,-1.48989a11.51394,11.51394 0 0 1 5.58054,3.39798c6.9528,8.65179 3.68551,17.12062 3.68551,17.12062s-11.50087,-9.04387 -13.84025,-12.27195z" class="cls-14"/>
     <path id="svg_59" d="m354.04461,268.92099a4.77025,4.77025 0 0 1 0.90177,-4.88787a4.16907,4.16907 0 0 1 3.09739,-0.91484a9.39673,9.39673 0 0 1 3.16274,0.94098a10.05019,10.05019 0 0 1 4.86173,4.83559c2.61383,5.3845 0.83643,12.03671 0.83643,12.03671s-11.57929,-7.8415 -12.86007,-12.01057z" class="cls-14"/>
     <path id="svg_60" d="m327.67102,288.6293a13.5658,13.5658 0 0 0 -14.02322,-2.27404a7.18804,7.18804 0 0 0 -2.9667,2.27404c-1.65978,2.30017 -1.08474,5.68509 0.65346,7.94606a17.57804,17.57804 0 0 0 6.93973,4.80946c4.7049,2.13027 11.9975,2.61383 16.98992,3.82927c-0.01307,0 -0.02614,-9.93257 -7.59319,-16.58478z" class="cls-14"/>
     <path id="svg_61" d="m250.26231,243.81511c3.11046,10.18088 11.90602,17.85249 21.69483,22.00849s20.57088,5.22767 31.19611,5.9334s21.34196,1.0194 31.61433,3.8162c9.99792,2.70532 19.95663,8.36427 24.25638,17.80021c5.22767,11.4878 0.60118,25.21043 -6.74369,35.4828s-17.2121,18.53209 -24.30866,28.96128c-3.25422,4.78332 -5.97261,10.38999 -5.31915,16.1535c0.87563,7.6716 7.34487,13.31749 13.34362,18.17922" class="cls-6"/>
     <path id="svg_62" d="m274.7278,240.09039a60.8762,60.8762 0 0 1 14.02322,30.34662" class="cls-6"/>
     <path id="svg_63" d="m251.0726,270.13642a48.68266,48.68266 0 0 0 12.25888,2.15641a18.67585,18.67585 0 0 0 11.97136,-5.22767" class="cls-6"/>
     <path id="svg_64" d="m360.93206,269.56138a20.74078,20.74078 0 0 1 6.24706,13.99708c0.19604,5.22767 -2.70532,11.57929 -6.19479,15.48697" class="cls-6"/>
     <path id="svg_65" d="m321.50237,293.30806a210.04773,210.04773 0 0 0 22.43977,18.41446c3.82927,2.69225 11.40939,6.12944 14.76816,5.22767" class="cls-6"/>
     <path id="svg_66" d="m409.01354,450.71317a57.50436,57.50436 0 0 1 -6.18172,3.01898a74.21983,74.21983 0 0 1 -25.83775,5.7243c-12.91234,0.48356 -26.13834,-2.36552 -38.5802,1.30692a38.01822,38.01822 0 0 0 -15.22559,8.82169c-0.43128,0.20911 -0.86257,0.44435 -1.30692,0.69267c-1.03246,-8.74328 20.76691,-20.13959 27.44526,-23.1063a78.977,78.977 0 0 1 38.35802,-6.69142c5.7243,0.45742 11.59236,1.58137 16.31033,4.83559a17.46041,17.46041 0 0 1 5.01856,5.39757z" class="cls-12"/>
     <path id="svg_67" d="m387.63238,445.72074c5.7243,0.45742 11.59236,1.58137 16.3234,4.83559s8.05061,9.07001 6.93973,14.70282c-1.30692,6.53459 -8.06368,10.82127 -14.70282,11.63156s-13.26521,-1.03246 -19.81286,-2.33938a141.35616,141.35616 0 0 0 -44.13459,-2.02572a25.82468,25.82468 0 0 0 -10.36385,3.01898c-1.03246,-8.74328 20.77998,-20.13959 27.44526,-23.1063a78.95087,78.95087 0 0 1 38.30574,-6.71755z" class="cls-10"/>
     <path id="svg_68" d="m327.55339,470.00326c10.83434,-9.51436 38.6194,-15.97053 58.27544,-13.89253c5.92033,0.62732 11.89295,2.39166 16.44102,6.23399" class="cls-11"/>
     <path id="svg_69" d="m307.33539,363.09744l105.70346,-0.22218a22.46591,22.46591 0 0 1 22.51818,22.4267l0,0a22.46591,22.46591 0 0 1 -22.41363,22.50511l-72.31173,0.14376" class="cls-15"/>
     <path id="svg_70" d="m-12.51952,440.71525l-73.9323,0.15683a12.6771,12.6771 0 0 0 -12.65096,12.76858l0,0a12.6771,12.6771 0 0 0 12.70323,12.65096l21.55106,0" class="cls-15"/>
     <path id="svg_71" d="m-130.52108,497.97129c-25.36726,0.10455 -25.85082,37.82218 6.36469,37.75684l474.90756,-0.98019c19.94356,0 22.04769,-31.14384 -2.61383,-31.09156c-49.03553,0.10455 -50.66918,-23.28926 -23.44609,-23.34154" class="cls-16"/>
     <path id="svg_72" d="m-124.60074,496.91269a6.26013,6.26013 0 1 1 -7.21418,-5.11005a6.26013,6.26013 0 0 1 7.21418,5.11005z" class="cls-5"/>
     <path id="svg_73" d="m336.81944,480.48474a6.26013,6.26013 0 1 1 -7.22725,-5.12312a6.24706,6.24706 0 0 1 7.22725,5.12312z" class="cls-17"/>
     <path id="svg_74" d="m343.66768,589.70381l-393.23831,0.81029a9.50129,9.50129 0 0 1 -9.51436,-9.47515l-0.53584,-260.5078a9.50129,9.50129 0 0 1 9.47515,-9.52743l393.23831,-0.81029a9.48822,9.48822 0 0 1 9.51436,9.47515l0.54891,260.52087a9.51436,9.51436 0 0 1 -9.48822,9.51436z" class="cls-12"/>
     <path id="svg_75" d="m335.96994,584.72445l-393.23831,0.81029a9.50129,9.50129 0 0 1 -9.51436,-9.47515l-0.53584,-260.5078a9.50129,9.50129 0 0 1 9.44901,-9.52743l393.23831,-0.81029a9.50129,9.50129 0 0 1 9.51436,9.48822l0.56197,260.48166a9.50129,9.50129 0 0 1 -9.47515,9.5405z" class="cls-18"/>
     <path id="svg_76" d="m334.75451,305.21408l-391.55239,0.81029a10.35078,10.35078 0 0 0 -10.32465,10.38999l0,8.99159l412.22782,-0.8495l0,-9.01773a10.35078,10.35078 0 0 0 -10.35078,-10.32465z" class="cls-9"/>
     <path id="svg_77" d="m-56.32739,585.53474l59.16414,-0.11762l-0.58811,-260.18107l-69.50186,0.14376l0.56197,249.80415a10.33771,10.33771 0 0 0 10.36385,10.35078z" class="cls-2"/>
     <path id="svg_78" d="m335.51252,307.82791a6.90052,6.90052 0 0 1 6.88745,6.87438l0.53584,260.48166a6.88745,6.88745 0 0 1 -6.87438,6.90052l-393.25138,0.81029a6.88745,6.88745 0 0 1 -6.88745,-6.86132l-0.53584,-260.49473a6.91359,6.91359 0 0 1 6.87438,-6.90052l393.25138,-0.81029l0,0m0,-2.61383l0,0l-393.23831,0.81029a9.50129,9.50129 0 0 0 -9.47515,9.52743l0.53584,260.5078a9.50129,9.50129 0 0 0 9.50129,9.47515l0,0l393.23831,-0.81029a9.48822,9.48822 0 0 0 9.48822,-9.51436l-0.53584,-260.5078a9.50129,9.50129 0 0 0 -9.51436,-9.48822z" class="cls-9"/>
     <rect id="svg_79" transform="matrix(1.30691, -0.00273719, 0.00273719, 1.30691, 29.9552, -122.098)" rx="2.79" height="5.92" width="40.46" y="520.25033" x="-67.15752" class="cls-18"/>
     <rect id="svg_80" transform="matrix(1.30691, -0.00273719, 0.00273719, 1.30691, 29.9552, -122.097)" rx="5.11" height="39.91" width="39.91" y="351.19033" x="-68.20752" class="cls-18"/>
     <rect id="svg_81" transform="matrix(1.30691, -0.00273719, 0.00273719, 1.30691, 29.9547, -122.097)" rx="3.64" height="7.73" width="110.76" y="472.60033" x="-13.54752" class="cls-2"/>
     <rect id="svg_82" transform="matrix(1.30691, 0, 0, 1.30691, 29.5853, -121.449)" rx="3.64" height="7.73" width="89.05" y="354.48525" x="3.19291" class="cls-2"/>
     <rect id="svg_83" transform="matrix(1.30691, -0.00273719, 0.00273719, 1.30691, 29.954, -122.097)" rx="3.64" height="7.73" width="116.31" y="437.66033" x="104.26248" class="cls-2"/>
     <rect id="svg_84" transform="matrix(1.30691, -0.00273719, 0.00273719, 1.30691, 29.9547, -122.097)" rx="3.64" height="7.73" width="110.76" y="488.59033" x="-13.55752" class="cls-2"/>
     <rect id="svg_85" transform="matrix(1.30691, -0.00273719, 0.00273719, 1.30691, 29.9547, -122.097)" rx="3.64" height="7.73" width="110.76" y="504.57033" x="-13.54752" class="cls-2"/>
     <rect id="svg_86" transform="matrix(1.30691, -0.00273719, 0.00273719, 1.30691, 29.954, -122.097)" rx="6.01" height="56.81" width="116.31" y="466.16033" x="104.26248" class="cls-2"/>
     <path id="svg_87" d="m-44.51286,315.49951a3.33264,3.33264 0 1 1 -3.33264,-3.31957a3.3065,3.3065 0 0 1 3.33264,3.31957z" class="cls-2"/>
     <circle id="svg_88" r="3.33263" cy="315.47338" cx="-33.73079" class="cls-2"/>
     <path id="svg_89" d="m-16.29651,315.43417a3.33264,3.33264 0 1 1 -3.34571,-3.31957a3.34571,3.34571 0 0 1 3.34571,3.31957z" class="cls-2"/>
     <circle id="svg_90" transform="matrix(0.130257, -1.30041, 1.30041, 0.130257, -327.954, 63.7908)" r="7.37" cy="285.92416" cx="-188.79253" class="cls-2"/>
     <rect id="svg_91" transform="matrix(1.30691, 0, 0, 1.30691, 29.4809, -121.697)" rx="1.37" height="2.92" width="35.39" y="394.40525" x="-64.50709" class="cls-18"/>
     <rect id="svg_92" transform="matrix(1.30691, -0.00273719, 0.00273719, 1.30691, 29.9552, -122.097)" rx="1.37" height="2.92" width="35.39" y="400.66033" x="-65.35752" class="cls-18"/>
     <path id="svg_93" d="m38.94687,422.65365l-12.06285,0.11762l0.09148,50.55156l-10.45534,0a6.65221,6.65221 0 0 1 -6.66528,-6.63914l-0.19604,-93.48379a6.73062,6.73062 0 0 1 6.71755,-6.73062l22.40056,0l0.1699,56.18437z" class="cls-2"/>
     <path id="svg_94" d="m117.25735,366.28632l0,1.30692a6.53459,6.53459 0 0 1 6.53459,6.53459l0.19604,91.1444a6.53459,6.53459 0 0 1 -6.53459,6.53459l-99.67857,0.20911a6.53459,6.53459 0 0 1 -6.53459,-6.53459l-0.19604,-91.1444a6.53459,6.53459 0 0 1 6.53459,-6.53459l99.65243,-0.20911l0,-1.30692m0,0l0,0l-99.6655,0.20911a7.8415,7.8415 0 0 0 -7.8415,7.8415l0.19604,91.1444a7.8415,7.8415 0 0 0 7.8415,7.8415l0,0l99.6655,-0.20911a7.8415,7.8415 0 0 0 7.8415,-7.8415l-0.1699,-91.1444a7.8415,7.8415 0 0 0 -7.8415,-7.8415l-0.02614,0z" class="cls-2"/>
     <rect id="svg_95" transform="matrix(1.27474, 0.288211, -0.288211, 1.27474, 7.56872, -120.168)" rx="6.01" height="63.93" width="116.31" y="308.5467" x="190.4655" class="cls-2"/>
     <polygon id="svg_96" points="26.361255645751953,621.265869140625 7.763828277587891,621.3050537109375 3.2026939392089844,597.5975341796875 30.81785011291504,597.5452880859375 26.361255645751953,621.265869140625 " class="cls-9"/>
     <path id="svg_97" d="m8.35194,597.59759c0,1.93424 -0.36594,5.22767 0.92791,5.22767s0.75801,-3.08432 2.22176,-3.00591c0.94098,0 -0.44435,10.29851 3.09739,10.54682c2.44394,0.1699 1.99958,-5.01856 2.2479,-8.27279a1.51602,1.51602 0 0 1 3.00591,-0.31366c0,1.63365 -0.07842,2.71839 0,4.57421c0.13069,3.08432 4.88787,2.27404 4.71797,-1.86889s0,-6.92666 0,-6.92666l-16.21884,0.03921z" class="cls-2"/>
     <path id="svg_98" d="m3.90842,611.90833a5.08391,5.08391 0 0 1 -1.11088,-0.11762a3.92075,3.92075 0 0 1 -2.84908,-2.14334c-1.89503,-4.01224 3.09739,-11.55315 3.29343,-11.87988l0.24831,1.30692c0,0.07842 -4.37817,6.53459 -2.61383,10.16782a2.95363,2.95363 0 0 0 2.20869,1.63365a3.71164,3.71164 0 0 0 0.94098,0.09148c6.69142,0 18.14001,-12.49413 18.29684,-12.63789c0.47049,-0.56197 1.30692,0 1.03246,0.44435c-0.61425,0.64039 -12.24581,13.12145 -19.44693,13.13452z" class="cls-19"/>
     <path id="svg_99" d="m199.37096,287.81901c-26.43893,-1.00633 -62.83658,18.54515 -49.92424,66.35219c-0.27445,4.03837 2.14334,6.92666 4.71797,6.12944s0.30059,-8.44268 0.30059,-8.44268c4.40431,-35.54815 12.63789,-41.69066 26.6219,-41.57304l32.79055,0c8.10289,1.20236 22.83184,6.86132 25.04053,35.28676l8.16823,1.51602c0.62732,-20.59701 -4.3651,-57.60891 -47.71555,-59.26869z" class="cls-12"/>
     <path id="svg_100" d="m199.37096,283.66301c-26.43893,-1.0194 -62.83658,18.53209 -49.92424,66.33912l5.01856,-2.31324c4.40431,-35.53508 12.63789,-41.69066 26.6219,-41.55997l32.79055,0c8.10289,1.18929 23.22392,8.37734 25.43261,36.82893l7.77616,0c0.62732,-20.62315 -4.3651,-57.63505 -47.71555,-59.29483z" class="cls-20"/>
     <path id="svg_101" d="m193.96032,284.43409l-3.92075,8.63872s0.47049,4.84866 5.22767,4.75718s5.42371,-2.32631 5.42371,-2.32631l0.61425,-9.90643l-7.34487,-1.16316z" class="cls-21"/>
     <path id="svg_102" d="m214.15219,277.20684c-4.48273,7.91992 -6.45617,10.37692 -12.31116,11.56622c-7.58012,1.54216 -16.08815,-3.56788 -12.12819,-16.16657c3.21502,-10.27237 8.08982,-8.691 12.87313,-8.29892s16.40181,4.37817 11.56622,12.89927z" class="cls-21"/>
     <path id="svg_103" d="m196.35198,270.99898a3.18888,3.18888 0 0 0 -3.63323,0.87563a3.92075,3.92075 0 0 0 -1.00633,3.8162a3.4764,3.4764 0 0 0 -3.26729,3.6463c-1.30692,-2.91443 -0.57504,-5.95954 -0.82336,-8.95238s0.07842,-6.23399 2.01265,-8.5211a9.69733,9.69733 0 0 1 2.90136,-2.23483a15.02955,15.02955 0 0 1 13.48739,-0.19604a8.20744,8.20744 0 0 0 6.07716,1.07167c5.7635,-1.3984 9.14842,2.50928 5.67202,6.16865a4.56114,4.56114 0 0 1 2.84908,1.96038a0.91484,0.91484 0 0 1 0,0.87563a1.08474,1.08474 0 0 1 -0.53584,0.32673a6.28627,6.28627 0 0 1 -3.03205,0.23525c0.37901,0.3398 2.52235,0.45742 3.17581,1.71206c1.72513,3.31957 -5.09698,1.63365 -6.14251,1.30692c1.18929,0.22218 4.29976,2.70532 3.3065,4.41738c-0.19604,0.3398 -4.40431,2.78373 -8.82169,-2.35245a8.11596,8.11596 0 0 0 -3.75085,-2.70532a6.07716,6.07716 0 0 0 -3.59402,0.56197c-0.8495,0.31366 -3.00591,1.63365 -3.62016,0.8495s0.13069,-2.18255 -1.25464,-2.86215z" class="cls-19"/>
     <path id="svg_104" d="m240.10757,342.90557c-1.16316,4.03837 -2.35245,4.43045 -0.92791,5.07084s2.61383,-1.60751 2.61383,-1.60751l6.53459,1.30692s-1.47682,-4.26055 -2.50928,-4.77025s-5.71123,0 -5.71123,0z" class="cls-21"/>
     <path id="svg_105" d="m154.46528,347.68888c0.86257,2.13027 1.09781,2.14334 2.28711,4.7049c2.28711,4.88787 -3.05819,12.61175 -6.37776,4.18213a23.995,23.995 0 0 1 -0.92791,-6.53459l5.01856,-2.35245z" class="cls-21"/>
     <path id="svg_106" d="m205.69644,260.12543c4.48273,0.23525 9.99792,-2.92749 13.51352,1.13702c0.31366,0.37901 0.96712,-0.11762 0.6796,-0.52277c-3.34571,-4.82252 -9.5797,-1.24157 -14.19312,-1.30692c-0.48356,0 -0.47049,0.7188 0,0.74494l0,-0.05228z" class="cls-19"/>
     <path id="svg_107" d="m207.49998,257.60308c-3.07126,0.52277 -6.02489,-0.91484 -9.14842,-0.43128a13.42204,13.42204 0 0 0 -6.53459,3.3065c-0.48356,0.41821 0.14376,1.24157 0.6796,0.8887c2.61383,-1.7382 5.22767,-3.24115 8.48189,-2.99284c2.37859,0.1699 4.41738,0.87563 6.79597,0.1699a0.48356,0.48356 0 0 0 -0.26138,-0.94098l-0.01307,0z" class="cls-19"/>
     <path id="svg_108" d="m190.06571,261.83749a7.17498,7.17498 0 0 0 -3.65937,5.71123c-0.18297,1.84275 -0.23525,6.1033 1.63365,7.14884a0.45742,0.45742 0 0 0 0.54891,-0.70574c-1.20236,-1.21543 -1.30692,-4.4958 -1.21543,-6.05103a7.10963,7.10963 0 0 1 2.99284,-5.58054c0.31366,-0.23525 0,-0.74494 -0.30059,-0.52277z" class="cls-19"/>
     <path id="svg_109" d="m223.2222,269.19544c-1.11088,-1.92117 -3.92075,-3.63323 -6.12944,-2.40473a0.39208,0.39208 0 0 0 0.19604,0.7188a9.7496,9.7496 0 0 1 2.7576,0.18297a4.86173,4.86173 0 0 1 2.61383,1.84275c0.24831,0.35287 0.81029,0 0.58811,-0.3398l-0.02614,0z" class="cls-19"/>
     <path id="svg_110" d="m77.78845,468.56565c13.86639,5.08391 25.9031,20.98909 23.13243,32.54224c-3.11046,13.06917 -12.11512,18.68892 -12.11512,18.68892l-2.84908,-5.22767s7.20111,-11.25256 6.53459,-16.57171c-0.99326,-8.5211 -11.76225,-14.20619 -11.76225,-14.20619l-2.94056,-15.22559z" class="cls-17"/>
     <path id="svg_111" d="m43.66485,615.88136s-8.50803,3.43719 -10.63831,5.37143l16.85923,0l0,-5.35836l-6.22093,-0.01307z" class="cls-19"/>
     <path id="svg_112" d="m80.92505,615.55463a13.63115,13.63115 0 0 1 2.86215,5.60667l-11.50087,0a13.36976,13.36976 0 0 1 2.14334,-5.60667l6.49538,0z" class="cls-19"/>
     <path id="svg_113" d="m81.63079,615.80294l-7.8415,0c0.15683,-9.25297 -1.75127,-40.78889 -3.59402,-64.36567c-1.08474,-13.82718 -2.15641,-24.93598 -2.78373,-27.18388l4.20827,-0.92791l15.87904,-3.52868c2.70532,12.42878 -3.56788,69.43651 -5.86806,96.00614z" class="cls-22"/>
     <path id="svg_114" d="m52.76099,523.76984c-6.12944,9.64505 -7.71081,79.38215 -10.28544,92.30756l7.44943,0.41821a676.9831,676.9831 0 0 1 26.81794,-93.3923l-23.98193,0.66653z" class="cls-23"/>
     <path id="svg_115" d="m79.85338,523.10331c-3.59402,9.76267 -6.82211,19.31624 -9.67119,28.34703c-1.08474,-13.82718 -2.15641,-24.93598 -2.78373,-27.18388l4.20827,-0.92791l8.24665,-0.23525z" class="cls-12"/>
     <path id="svg_116" d="m52.76099,523.76984c-6.12944,9.64505 -7.71081,79.38215 -10.28544,92.30756l7.44943,0.41821a676.9831,676.9831 0 0 1 26.81794,-93.3923l-23.98193,0.66653z" class="cls-23"/>
     <path id="svg_117" d="m57.43975,445.91678s-4.77025,18.17922 7.13577,18.17922l-0.70574,4.63956l9.05694,0.99326l-1.96038,-6.46924s1.85582,-11.46166 1.85582,-13.53966c0.27445,-3.82927 -10.45534,-10.62524 -15.38242,-3.80313z" class="cls-21"/>
     <rect id="svg_118" transform="matrix(1.30691, -0.0025091, 0.0025091, 1.30691, 29.9515, -122.085)" height="11.35" width="2.69" y="419.02495" x="-5.01334" class="cls-19"/>
     <rect id="svg_119" transform="matrix(1.30691, -0.0025091, 0.0025091, 1.30691, 29.9515, -122.085)" rx="1.95" height="4.31" width="19.33" y="414.71495" x="-13.33334" class="cls-9"/>
     <path id="svg_120" d="m23.52525,444.25699c-0.10455,-3.37185 -2.87522,-2.48314 -1.30692,-7.97219c0.94098,-3.39798 7.95913,0.53584 7.08349,2.88829s-1.88196,6.07716 -1.88196,6.07716l-3.89461,-0.99326z" class="cls-21"/>
     <path id="svg_121" d="m64.667,467.63774c-17.81328,1.17623 -18.98951,7.18804 -26.9617,6.24706c-11.76225,-1.3984 -9.73653,-23.30233 -8.27279,-31.15691l-7.04428,0s-12.70323,49.91117 27.44526,40.68433c-1.54216,8.74328 8.42962,23.01481 -1.24157,40.34453c15.23865,4.14293 29.44484,5.16232 41.61224,-0.07842c-2.13027,-2.86215 4.3651,-31.87571 -8.3512,-52.74718c-2.49621,-4.06451 -15.87904,-3.38492 -17.18596,-3.29343z" class="cls-9"/>
     <path id="svg_122" d="m64.667,467.63774c-17.81328,1.17623 -18.98951,7.18804 -26.9617,6.24706c-11.76225,-1.3984 -9.73653,-23.30233 -8.27279,-31.15691l-7.04428,0s-12.70323,49.91117 27.44526,40.68433c-1.54216,8.74328 8.42962,23.01481 -1.24157,40.34453c15.23865,4.14293 29.44484,5.16232 41.61224,-0.07842c-2.13027,-2.86215 4.3651,-31.87571 -8.3512,-52.74718c-2.49621,-4.06451 -15.87904,-3.38492 -17.18596,-3.29343z" class="cls-9"/>
     <path id="svg_123" d="m62.21,449.39318c1.16316,0.30059 2.52235,0.52277 3.1366,1.51602a3.65937,3.65937 0 0 1 0.3398,2.18255a1.81661,1.81661 0 0 1 1.9081,-1.30692a1.79048,1.79048 0 0 1 1.55523,1.64672a3.00591,3.00591 0 0 1 -0.26138,1.11088a13.64422,13.64422 0 0 1 -1.30692,2.52235c1.45068,0.53584 2.61383,4.78332 3.39798,6.11637c2.44394,-0.61425 7.8415,-2.71839 8.36427,-11.38325c0.22218,-4.03837 -1.00633,-8.87397 -5.3845,-11.56622c-3.09739,-1.89503 -8.23358,-1.92117 -11.76225,-1.0194c-2.86215,0.73187 -7.44943,3.60709 -5.30608,6.9528a8.99159,8.99159 0 0 0 5.31915,3.22809z" class="cls-20"/>
     <path id="svg_124" d="m77.47479,443.87799a4.28669,4.28669 0 0 1 4.75718,1.12395a9.27911,9.27911 0 0 1 0.95405,3.79006a2.90136,2.90136 0 0 0 0.82336,1.68592a3.54175,3.54175 0 0 0 2.19562,0.6796a49.45375,49.45375 0 0 1 5.75044,0.18297a5.22767,5.22767 0 0 1 4.3651,3.14967c0.30059,0.98019 0.14376,2.05186 0.49663,3.01898c0.53584,1.43761 2.06493,2.2479 3.39798,3.08432a22.09997,22.09997 0 0 1 6.99201,6.96587a12.70323,12.70323 0 0 1 2.10414,5.77657c0.13069,2.05186 1.60751,4.77025 1.21543,6.7829s-2.61383,5.13618 -6.80904,6.53459c-7.31874,2.36552 -9.64505,3.38492 -16.66319,-0.78415c-0.83643,-0.5097 -2.49621,-2.22176 -3.25422,-2.82294a3.76392,3.76392 0 0 1 -1.20236,-1.89503a7.94606,7.94606 0 0 1 1.15009,-6.02489c1.04553,-1.82968 2.47007,-3.45026 3.54175,-5.22767a6.53459,6.53459 0 0 0 1.09781,-3.56788a1.79048,1.79048 0 0 0 -0.48356,-1.30692a2.06493,2.06493 0 0 0 -1.12395,-0.5097c-1.54216,-0.31366 -3.24115,0 -4.63956,-0.6796a3.25422,3.25422 0 0 1 -1.68592,-3.72471c0.27445,-0.94098 0.99326,-1.7382 1.18929,-2.69225a3.65937,3.65937 0 0 0 -1.77741,-3.60709a10.22009,10.22009 0 0 0 -4.12986,-1.30692a4.80946,4.80946 0 0 1 -2.03879,-0.65346a2.77066,2.77066 0 0 1 -1.03246,-2.26097c0.03921,-2.83601 2.2479,-4.86173 4.80946,-5.71123z" class="cls-20"/>
     <path id="svg_125" d="m76.15481,451.18366c8.82169,1.9081 -2.31324,10.2593 2.35245,14.25847c1.30692,1.13702 2.87522,0.77108 4.43045,0.99326c5.98568,0.82336 2.71839,4.88787 2.30017,8.07675c0,0.48356 0.74494,0.57504 0.8495,0.11762c0.5097,-2.20869 2.52235,-4.88787 1.47682,-7.24032c-0.91484,-2.05186 -3.18888,-1.81661 -5.0447,-1.86889c-2.33938,-0.07842 -4.91401,0 -4.03837,-4.65263a17.39507,17.39507 0 0 1 1.42454,-3.04512a5.7635,5.7635 0 0 0 0.5097,-3.46333a4.75718,4.75718 0 0 0 -4.12986,-3.63323c-0.30059,0 -0.43128,0.39208 -0.13069,0.45742z" class="cls-20"/>
     <path id="svg_126" d="m58.00173,440.40159c6.79597,-3.45026 13.5658,-2.77066 19.30317,2.30017a0.40514,0.40514 0 0 0 0.57504,-0.57504a15.06876,15.06876 0 0 0 -20.07425,-2.05186a0.19604,0.19604 0 0 0 0.19604,0.32673z" class="cls-20"/>
     <polygon id="svg_127" points="286.2678928375244,461.7173767089844 283.3142795562744,467.6377868652344 290.51539039611816,470.57830810546875 291.2864475250244,463.769287109375 286.2678928375244,461.7173767089844 " class="cls-21"/>
     <path id="svg_128" d="m290.60685,442.44038c-16.3234,7.10963 -9.63198,24.32173 0.30059,22.30908c4.84866,-0.99326 7.2926,-16.55864 7.2926,-16.55864l-7.59319,-5.75044z" class="cls-21"/>
     <path id="svg_129" d="m296.03055,439.98338a8.63872,8.63872 0 0 0 -1.92117,-2.77066a2.47007,2.47007 0 0 0 -3.12353,-0.15683c-1.09781,1.0194 -0.45742,2.92749 0.66653,3.92075c-0.96712,0.11762 -2.10414,-0.54891 -2.80987,0.10455s-0.3398,1.38533 0,2.05186a8.96545,8.96545 0 0 0 3.34571,3.82927c-0.82336,0.47049 -1.79048,1.38533 -1.30692,2.19562c0.14376,0.22218 0.36594,0.37901 0.5097,0.61425c0.31366,0.52277 0,1.18929 -0.31366,1.72513c-0.5097,0.8495 -1.07167,1.67285 -1.65978,2.47007a1.45068,1.45068 0 0 1 2.33938,0.40514a2.49621,2.49621 0 0 1 -0.58811,2.61383a2.61383,2.61383 0 0 1 -1.30692,0.83643c-0.45742,0.10455 -2.43087,6.22093 -0.8887,7.42329c1.9081,1.47682 8.39041,0.19604 9.33139,-1.47682a4.12986,4.12986 0 0 0 3.67244,1.51602a2.26097,2.26097 0 0 0 1.65978,-3.12353a3.8162,3.8162 0 0 0 4.61342,-5.52826c0.79722,-0.23525 0.95405,-1.30692 0.75801,-2.13027a4.97935,4.97935 0 0 0 -3.38492,-3.4764a1.65978,1.65978 0 0 0 1.52909,-1.63365a3.43719,3.43719 0 0 0 -0.91484,-2.2479a7.61933,7.61933 0 0 0 -5.61974,-2.67918c-2.31324,-0.26138 -3.56788,-2.5877 -4.58728,-4.48273z" class="cls-14"/>
     <path id="svg_130" d="m280.73962,614.74434s-9.55356,4.58728 -10.83434,6.01182c0,0 18.79347,0.8495 20.25722,0s-3.00591,-5.98568 -3.00591,-5.98568l-6.41696,-0.02614z" class="cls-19"/>
     <path id="svg_131" d="m316.2747,609.55588s-8.40348,6.46924 -9.35753,8.12902c0,0 19.81286,-2.94056 19.81286,-4.23441s-4.18213,-5.22767 -4.18213,-5.22767l-6.2732,1.33306z" class="cls-19"/>
     <path id="svg_132" d="m289.96646,526.18763c-0.35287,1.94731 -13.42204,53.5836 23.995,84.51833l10.83434,-2.48314s-12.61175,-11.76225 -18.55822,-33.11728c-5.61974,-20.13959 -1.15009,-22.11304 2.22176,-33.20877c3.72471,-12.27195 0.95405,-21.18513 0.95405,-21.18513l-19.44693,5.47598z" class="cls-24"/>
     <path id="svg_133" d="m272.08783,526.0308c-5.9334,14.18005 -16.11429,62.48371 6.07716,89.69373l11.08266,0s-8.73021,-9.56663 -9.69733,-31.77116s4.66569,-31.94106 8.65179,-39.27286s7.65853,-19.77366 7.65853,-19.77366l-23.77282,1.12395z" class="cls-20"/>
     <path id="svg_134" d="m264.27246,438.14062c-2.95363,10.37692 -3.92075,29.56247 10.83434,37.28635l9.86722,-2.40473s-17.80021,-9.33139 -13.98401,-32.90817l-6.71755,-1.97344z" class="cls-17"/>
     <path id="svg_135" d="m237.07552,432.82147l7.65853,-0.94098s-0.92791,32.21551 36.24081,34.82934c28.37317,2.078 30.59493,55.30873 30.59493,55.30873c-9.14842,6.15558 -24.49163,8.02447 -44.16073,6.613c0,0 1.30692,-37.97901 -1.86889,-48.35594c0,0.03921 -30.88245,-9.64505 -28.46466,-47.45416z" class="cls-9"/>
     <path id="svg_136" d="m227.70492,426.97955c-1.30692,1.50295 4.11679,3.41105 9.3706,5.84192l6.71755,-0.82336a27.36685,27.36685 0 0 0 0,-2.74453c-0.09148,-1.3984 -0.78415,-2.20869 -1.58137,-1.00633s-4.20827,1.62058 -5.80271,0.52277s-7.41022,-3.29343 -8.70407,-1.79048z" class="cls-21"/>
     <path id="svg_137" d="m264.27246,438.14062c-2.47007,-2.43087 -1.81661,-2.27404 -1.81661,-2.27404l7.51477,1.69899s1.65978,-3.67244 3.05819,-3.77699s-1.0586,2.53542 -0.49663,3.50254s-1.54216,2.82294 -1.54216,2.82294l-6.71755,-1.97344z" class="cls-21"/>
     <path id="svg_138" d="m300.22576,443.52512a10.61217,10.61217 0 0 1 4.39124,1.60751a3.3065,3.3065 0 0 1 0.92791,4.28669c-0.43128,0.6796 0.58811,1.21543 1.04553,0.61425a4.10372,4.10372 0 0 0 -0.32673,-5.05777a6.92666,6.92666 0 0 0 -5.94647,-2.13027c-0.36594,0 -0.49663,0.57504 -0.09148,0.6796z" class="cls-14"/>
     <path id="svg_139" d="m307.04786,457.46993a2.43087,2.43087 0 0 1 1.45068,2.83601c-0.40514,1.16316 -1.59444,1.85582 -2.54849,2.52235a0.44435,0.44435 0 0 0 0.44435,0.75801a5.08391,5.08391 0 0 0 3.12353,-3.50254a3.37185,3.37185 0 0 0 -2.05186,-3.31957c-0.47049,-0.24831 -0.87563,0.44435 -0.41821,0.70574z" class="cls-14"/>
     <path id="svg_140" d="m289.88804,465.25915a9.14842,9.14842 0 0 0 11.22642,-1.21543c0.35287,-0.37901 -0.13069,-1.08474 -0.57504,-0.74494a9.99792,9.99792 0 0 1 -10.36385,1.47682c-0.32673,-0.13069 -0.60118,0.28752 -0.28752,0.48356z" class="cls-14"/>
     <path id="svg_141" d="m307.50528,445.79916c1.98651,1.89503 0,4.48273 -1.30692,6.1033c-0.27445,0.36594 0.1699,0.8495 0.5097,0.52277a6.37776,6.37776 0 0 0 2.43087,-3.92075a2.9667,2.9667 0 0 0 -1.47682,-2.97977c-0.14376,-0.07842 -0.31366,0.10455 -0.18297,0.22218l0.02614,0.05228z" class="cls-14"/>
     <polygon id="svg_142" points="86.42717170715332,207.05152893066406 83.36900520324707,199.56288146972656 112.94452095031738,188.3364715576172 86.42717170715332,207.05152893066406 " class="cls-17"/>
     <polygon id="svg_143" points="87.91707038879395,202.43809509277344 112.94452095031738,188.3364715576172 95.52330207824707,206.0321502685547 87.91707038879395,202.43809509277344 " class="cls-5"/>
     <polygon id="svg_144" points="76.59915351867676,196.5177764892578 112.94452095031738,188.3364715576172 83.36900520324707,199.56288146972656 76.59915351867676,196.5177764892578 " class="cls-5"/>
     <polygon id="svg_145" points="87.91707038879395,202.43809509277344 86.42717170715332,207.05152893066406 90.94909858703613,203.86265563964844 87.91707038879395,202.43809509277344 " class="cls-9"/>
     <path id="svg_146" d="m82.95078,206.0452c-7.71081,-1.30692 -18.19229,6.53459 -13.68342,14.63747c1.52909,2.77066 9.44901,1.5683 8.8609,-1.48989c-0.28752,-1.46375 -2.078,-2.09107 -3.56788,-1.92117c-8.62565,0.99326 -8.96545,8.22051 -8.58645,10.06326c1.97344,9.51436 16.55864,6.29934 21.45958,4.95322" class="cls-16"/>
    </g>
   </g>
  </g>
  <g transform="rotate(-180, 1682.47, 519.444)" id="svg_294" class="cls-1">
   <g id="svg_293">
    <g id="svg_292">
     <ellipse id="svg_147" ry="4.77853" rx="51.16069" cy="301.9811" cx="1777.47398" class="cls-2"/>
     <ellipse id="svg_148" ry="4.77853" rx="51.16069" cy="301.9811" cx="1514.65494" class="cls-2"/>
     <path id="svg_149" d="m1406.56226,638.43712c0.14561,0.88687 0.30445,1.76051 0.47653,2.64738" class="cls-3"/>
     <path id="svg_150" d="m1408.29629,646.23367c9.13347,31.08029 38.22822,28.07551 64.52998,28.02256l466.61465,-0.9663c44.03923,-0.07942 39.71076,-63.66958 5.29477,-63.6034c-19.85538,0 -27.37395,-37.19574 6.90967,-37.26193c20.57017,0 21.17907,-26.11644 7.39944,-31.34503" class="cls-4"/>
     <path id="svg_151" d="m1956.50332,540.40449a-15.36806,-15.36806 0 0 0 -2.64738,-0.22503" class="cls-3"/>
     <path id="svg_152" d="m1948.45527,541.38403a-6.34048,-6.34048 0 1 1 7.32002,5.18887a-6.35372,-6.35372 0 0 1 -7.32002,-5.18887z" class="cls-5"/>
     <path id="svg_153" d="m1400.32767,635.64413a-6.34048,-6.34048 0 1 1 5.09621,7.37296a-6.35372,-6.35372 0 0 1 -5.09621,-7.37296z" class="cls-5"/>
     <path id="svg_154" d="m1883.83263,587.68677a-110.44886,-110.44886 0 0 1 3.87842,-15.14304a-257.96109,-257.96109 0 0 1 13.23692,-31.19942c2.55473,-5.29477 12.91923,-17.63158 18.53169,-19.97451a-287.59855,-287.59855 0 0 0 0.91335,44.11865c1.54872,13.50166 -3.30923,23.7338 1.98554,36.25592c0.67508,1.60167 1.32369,3.20333 2.0782,4.805c2.64738,5.95661 5.29477,11.91323 6.06251,18.35961c1.05895,8.14071 -1.4693,17.41979 -8.51134,21.6556c-5.06974,3.04449 -11.67496,2.88565 -17.08886,0.48977a-31.76861,-31.76861 0 0 1 -13.0516,-11.6882c-9.26584,-13.71345 -10.9337,-31.42445 -8.03481,-47.67938z" class="cls-5"/>
     <path id="svg_155" d="m1908.46654,632.66582c-10.37774,-14.64003 -11.26462,-31.68919 -12.16473,-49.61197a-95.5838,-95.5838 0 0 1 12.25739,-51.62399" class="cls-6"/>
     <path id="svg_156" d="m1908.89012,362.65914c7.26707,6.41991 14.56061,12.93247 19.98775,21.00699c4.67263,7.0288 7.69065,15.01067 11.76762,22.4101c2.64738,4.77853 5.75806,9.38498 7.28031,14.64003s1.16485,11.44994 -2.55473,15.44749s-10.58954,4.805 -15.8843,2.64738s-9.26584,-6.61846 -12.40299,-11.38375a-54.19195,-54.19195 0 0 1 -7.94215,-21.08641c-1.03248,-6.7773 -0.78098,-13.70021 -1.82669,-20.47751a-68.55401,-68.55401 0 0 0 -5.78453,-18.16105c-2.42236,-5.29477 -8.56429,-14.56061 -10.13948,-19.98775c4.35495,-2.15762 14.40177,12.20444 17.49921,14.94448z" class="cls-7"/>
     <path id="svg_157" d="m1934.31824,429.22761c-6.90967,-3.01802 -9.64971,-11.26462 -11.09254,-18.66406c-1.64138,-8.41868 -1.32369,-17.53892 -5.13592,-25.15015c-7.28031,-14.44148 -16.7447,-30.8685 -23.82646,-35.73968" class="cls-8"/>
     <path id="svg_158" d="m1944.64304,382.40862c6.03604,2.36941 14.08408,3.34894 17.94926,-1.85317c3.22981,-4.35495 1.56196,-10.52335 -0.67508,-15.47396c-1.89288,-4.16963 -4.28876,-8.41868 -8.27307,-10.68219a-23.60143,-23.60143 0 0 0 -9.00111,-2.39588a-218.29004,-218.29004 0 0 0 -26.12968,-1.50901a-54.76114,-54.76114 0 0 1 -30.74936,-10.40422c10.74838,19.96127 36.58685,34.29686 56.87904,42.31843z" class="cls-9"/>
     <path id="svg_159" d="m1955.21934,369.4232c-7.67741,-0.33092 -15.42101,-0.8604 -22.78074,-3.04449s-36.50742,-15.52691 -41.03445,-21.17907" class="cls-6"/>
     <path id="svg_160" d="m1878.88202,423.37689a-51.10775,-51.10775 0 0 0 35.73968,22.80721c10.66896,1.42959 21.64236,-0.56919 32.17895,1.65461a-41.03445,-41.03445 0 0 1 30.84202,51.90196c-2.4753,8.23336 -8.12747,16.02991 -16.30788,18.67729a-25.89141,-25.89141 0 0 1 -13.88553,0.14561a-38.83712,-38.83712 0 0 1 -11.71467,-5.06974c-8.23336,-5.21535 -14.89153,-13.23692 -19.85538,-21.7615c-4.54026,-7.7436 -15.7387,-19.85538 -23.36316,-27.63869c-4.46084,-4.59321 -7.71712,-7.71712 -7.71712,-7.71712c-5.26829,-6.49933 -2.81946,-25.25604 -5.9169,-32.99964z" class="cls-10"/>
     <path id="svg_161" d="m1963.71744,494.60475c-25.63991,-11.56907 -53.60952,-26.73858 -71.78381,-48.20886" class="cls-11"/>
     <path id="svg_162" d="m1889.47156,449.28154s38.22822,30.97439 46.26303,64.2123c-8.23336,-5.21535 -14.89153,-13.23692 -19.85538,-21.7615c-4.54026,-7.7436 -15.7387,-19.85538 -23.36316,-27.63869c-0.93982,-4.16963 -1.87964,-9.04082 -3.04449,-14.81211z" class="cls-12"/>
     <path id="svg_163" d="m1887.71105,572.54374a-257.96109,-257.96109 0 0 1 13.23692,-31.19942c2.55473,-5.29477 12.91923,-17.63158 18.53169,-19.97451a-287.59855,-287.59855 0 0 0 0.91335,44.11865c1.54872,13.50166 -3.30923,23.7338 1.98554,36.25592c0.67508,1.60167 1.32369,3.20333 2.0782,4.805c-0.48977,-0.15884 -0.9663,-0.33092 -1.42959,-0.52948c-8.70989,-3.73281 -12.73392,-12.94571 -13.47518,-21.89386c-0.62214,-7.3862 0.71479,-14.78564 1.70756,-22.13213a-29.24036,-29.24036 0 0 0 0.1059,-10.17919a-0.31769,-0.31769 0 0 1 0,-0.1059a-3.81223,-3.81223 0 0 0 -7.43915,0.27798l-2.38265,12.32357c-0.68832,3.67986 -1.44282,7.53181 -4.46084,10.09977a-6.36696,-6.36696 0 0 1 -4.28876,1.60167a-5.87719,-5.87719 0 0 1 -5.08298,-3.46807z" class="cls-12"/>
     <path id="svg_164" d="m1889.47156,457.09132c6.03604,31.51711 9.19966,36.37506 6.55228,44.26426c-3.38865,10.0733 -1.48253,20.19954 -4.67263,30.32578s-5.36095,20.98052 -2.79299,31.30531c0.82069,3.25628 2.46207,6.80378 6.3802,6.94938a-6.36696,-6.36696 0 0 0 4.28876,-1.65461c3.01802,-2.56796 3.78576,-6.41991 4.47408,-10.09977l2.30322,-12.2971a-3.81223,-3.81223 0 0 1 7.43915,-0.27798l0,0.1059a-29.22712,-29.22712 0 0 1 -0.09266,10.17919c-0.99277,7.34649 -2.3297,14.74593 -1.7208,22.13213c0.74127,8.94816 4.76529,18.16105 13.48842,21.89386a-15.35483,-15.35483 0 0 0 9.82179,0.78098c9.09376,-2.3297 11.44994,-11.22491 10.11301,-18.80966c-0.92658,-5.29477 -3.4416,-10.25861 -5.70511,-15.18275c-5.53303,-12.03236 -1.4693,-23.07195 -2.23704,-36.29563c-2.09143,-36.45448 -47.63967,-73.3193 -47.63967,-73.3193z" class="cls-13"/>
     <path id="svg_165" d="m1930.05595,591.19455c-4.48732,-22.42334 -9.02758,-45.00553 -17.73747,-66.1846c-2.55473,-6.20812 -3.81223,-14.36206 -18.59787,-31.23913" class="cls-11"/>
     <path id="svg_166" d="m1754.99769,585.48944c4.64616,5.29477 8.93492,10.70867 13.44871,15.8843c2.92536,3.37541 5.94338,6.61846 9.26584,9.79532c1.62814,1.56196 3.30923,3.07097 5.08298,4.54026a-142.7337,-142.7337 0 0 0 34.69397,21.17907c7.54504,3.22981 15.51367,5.89043 21.92034,11.03959s10.97341,13.58108 8.86874,21.50999c-1.54872,5.71835 -6.40667,10.16595 -11.91323,12.20444a-31.86127,-31.86127 0 0 1 -17.51244,0.62214c-16.14904,-3.48131 -29.63746,-15.09009 -38.81065,-28.81677l-0.48977,-0.74127c-6.72436,-10.25861 -11.42346,-21.66884 -15.51367,-33.29085c-1.32369,-3.73281 -2.55473,-7.4921 -3.78576,-11.23814c-1.98554,-5.59922 -7.6377,-17.18152 -5.25506,-22.68808z" class="cls-5"/>
     <path id="svg_167" d="m1828.87294,668.78938c-17.61834,-3.36218 -30.08752,-15.0239 -43.15236,-27.30777a-95.66322,-95.66322 0 0 1 -26.97684,-45.72032" class="cls-6"/>
     <path id="svg_168" d="m1768.4464,601.37375a-20.84815,-20.84815 0 0 0 -0.2515,-5.50656c4.40789,1.00601 7.46562,7.84949 9.47763,15.30188a-115.02883,-115.02883 0 0 1 3.25628,18.69053a-80.86434,-80.86434 0 0 1 -1.48253,22.84692c-6.72436,-10.25861 -11.42346,-21.66884 -15.51367,-33.29085q2.10467,-6.24783 3.60044,-12.6545a-36.7854,-36.7854 0 0 0 0.91335,-5.38743z" class="cls-12"/>
     <path id="svg_169" d="m1737.88236,664.91096c1.48253,-6.61846 5.48008,-12.31034 8.98787,-18.10811c1.86641,-3.04449 3.58721,-6.18164 5.20211,-9.3585a-141.92625,-141.92625 0 0 0 11.72791,-32.05982a-25.98407,-25.98407 0 0 0 0.64861,-10.90722c8.68342,1.9723 12.13826,26.65916 12.73392,34.00565a-79.95099,-79.95099 0 0 1 -6.61846,38.85036c-2.38265,5.29477 -5.44037,10.58954 -10.16595,13.92524s-11.38375,4.59321 -16.37407,1.62814a-13.23692,-13.23692 0 0 1 -5.87719,-8.11423a-20.22601,-20.22601 0 0 1 -0.26474,-9.86151z" class="cls-10"/>
     <path id="svg_170" d="m1767.77132,601.81056c5.40066,13.56784 2.13114,42.27872 -6.53904,60.32064c-2.64738,5.42714 -6.32725,10.58954 -11.52936,13.56784" class="cls-11"/>
     <path id="svg_171" d="m1737.88236,664.91096c1.48253,-6.61846 5.48008,-12.31034 8.98787,-18.10811c1.86641,-3.04449 3.58721,-6.18164 5.20211,-9.3585a-31.49063,-31.49063 0 0 1 4.4476,13.01189c0.72803,7.69065 -2.21057,15.8843 -8.45839,20.46428a-22.82045,-22.82045 0 0 1 -9.94093,3.85194a-20.22601,-20.22601 0 0 1 -0.23826,-9.86151z" class="cls-12"/>
     <path id="svg_172" d="m1687.78061,607.51568a-27.98285,-27.98285 0 0 1 2.25028,-7.30678c3.85194,-8.33926 11.91323,-15.50043 24.05148,-21.31144c0,0 0.67508,13.23692 0.80745,16.70499c0.59566,15.11656 16.9962,23.4823 27.37395,34.49541c5.29477,5.62569 9.26584,12.73392 10.03359,20.41133s-2.19733,15.8843 -8.45839,20.46428c-5.29477,3.77252 -12.09854,4.60645 -18.53169,4.11668c-10.40422,-0.83393 -20.9011,-5.18887 -27.36071,-13.31634a-10.08653,-10.08653 0 0 1 -0.76774,-0.95306c-3.97108,-5.4139 -5.99632,-12.00589 -7.4921,-18.53169c-2.60767,-11.41022 -3.77252,-23.24403 -1.90612,-34.77339z" class="cls-7"/>
     <path id="svg_173" d="m1739.37813,662.85924c-11.34404,-5.86396 -22.72779,-12.97218 -29.33301,-23.90588c-9.26584,-15.26217 -7.21412,-35.11755 -0.1059,-51.46514" class="cls-8"/>
     <path id="svg_174" d="m1497.83082,510.039c-7.2406,11.91323 -3.53426,27.22834 -6.06251,40.94179a-45.24379,-45.24379 0 0 1 -16.18875,26.97684c-5.29477,4.18287 -12.6545,7.17441 -18.61111,3.97108c-1.32369,-0.67508 -2.81946,-1.64138 -4.06373,-0.87364a-3.24305,-3.24305 0 0 0 -1.20456,2.2238c-1.50901,7.41267 2.05172,15.50043 -0.8604,22.50276c-1.56196,3.74605 -4.805,6.61846 -8.23336,8.73637a-44.87316,-44.87316 0 0 1 -22.19831,6.96262a-12.31034,-12.31034 0 0 1 -6.11546,-0.92658c-3.36218,-1.68109 -4.89766,-5.87719 -4.4476,-9.61a-21.17907,-21.17907 0 0 1 4.805,-10.06006c7.59799,-9.94093 18.73024,-18.53169 20.19954,-30.94792a-8.00834,-8.00834 0 0 0 -0.54271,-4.63292c-0.68832,-1.32369 -1.98554,-2.31646 -2.71357,-3.66663c-2.34293,-4.302 2.18409,-9.17319 6.61846,-11.29109a-38.28117,-38.28117 0 0 1 12.86629,-3.56073c3.07097,-0.29121 6.5258,-0.3574 8.61723,-2.64738c3.83871,-4.18287 -0.58242,-10.86751 0.22503,-16.4932c0.503,-3.50778 3.05773,-6.34048 5.61245,-8.80255a-100.60059,-100.60059 0 0 1 15.4872,-12.20444c4.50055,-2.88565 9.26584,-5.42714 13.23692,-8.98787s7.20088,-8.3525 7.46562,-13.68697" class="cls-10"/>
     <path id="svg_175" d="m1488.23405,521.60807c-1.19132,5.7713 -3.87842,11.11901 -6.5258,16.37407c-4.15639,8.22013 -8.40544,16.55939 -14.67974,23.29698c-4.76529,5.12269 -10.58954,9.17319 -15.42101,14.21645a-52.65647,-52.65647 0 0 0 -8.70989,12.09854a-41.78896,-41.78896 0 0 1 -4.03726,7.01557c-1.99877,2.50178 -4.75205,4.28876 -7.14794,6.43314a-30.70965,-30.70965 0 0 0 -7.57152,10.44393" class="cls-11"/>
     <path id="svg_176" d="m1393.90776,501.75269c1.62814,-6.2743 4.0505,-12.48242 8.20689,-17.4595a-37.24869,-37.24869 0 0 1 10.35127,-8.3525a-58.24245,-58.24245 0 0 1 6.26106,-3.05773a-75.17247,-75.17247 0 0 1 26.16939,-5.79777c13.07808,-0.48977 26.47384,2.39588 39.07539,-1.32369a-38.5062,-38.5062 0 0 0 15.42101,-8.93492a-37.51343,-37.51343 0 0 0 6.92291,-8.7496l-1.70756,10.85427c-3.16362,11.67496 -6.39343,23.56172 -12.85305,33.79386a-88.91239,-88.91239 0 0 1 -15.34159,17.711a-127.97454,-127.97454 0 0 1 -30.66994,21.44381c-9.107,4.42113 -19.22001,7.53181 -29.28007,6.30077s-19.85538,-7.57152 -23.05871,-17.208c-2.01201,-6.18164 -1.13838,-12.93247 0.503,-19.22001z" class="cls-5"/>
     <path id="svg_177" d="m1496.05707,467.17786a-79.42152,-79.42152 0 0 1 -40.27995,30.59052c-10.13948,3.37541 -20.87462,4.67263 -31.14647,7.6377s-20.53046,7.94215 -26.55326,16.83736" class="cls-6"/>
     <path id="svg_178" d="m1489.72982,362.91064c-0.56919,14.56061 -8.11423,28.07551 -17.28742,39.45926c-7.6377,9.49087 -16.86384,18.17429 -28.26082,22.50276c-3.56073,1.32369 -7.47886,2.27675 -11.1852,1.32369s-7.06852,-4.09021 -7.1347,-7.94215c-0.06618,-3.21657 2.10467,-6.03604 4.38142,-8.31279c7.47886,-7.50533 17.208,-12.31034 26.23557,-17.79042c15.59309,-9.42469 30.44492,-22.013 36.60008,-39.14157" class="cls-10"/>
     <path id="svg_179" d="m1483.95853,375.68427c-9.53058,21.25849 -34.19096,40.26671 -50.47237,42.63612" class="cls-11"/>
     <path id="svg_180" d="m1495.68644,351.30186c0.13237,2.44883 -7.84949,8.84226 -9.64971,10.48364a-92.49959,-92.49959 0 0 1 -34.3101,19.60388c-5.0565,1.58843 -10.43069,2.74004 -15.50043,1.52225s-9.70266,-5.37419 -10.20567,-10.84104s3.07097,-10.4704 7.61123,-13.03837s9.83503,-2.95183 14.89153,-2.64738c7.80978,0.46329 15.4872,2.39588 23.33669,2.34293s18.84937,-0.91335 23.82646,-7.42591z" class="cls-7"/>
     <path id="svg_181" d="m1487.55897,358.74101c-16.02991,8.68342 -40.26671,14.33558 -57.87181,12.20444" class="cls-8"/>
     <path id="svg_182" d="m1687.78061,607.51568a-27.98285,-27.98285 0 0 1 2.25028,-7.30678a-127.40535,-127.40535 0 0 1 11.76762,46.60719a-25.83847,-25.83847 0 0 1 -3.87842,14.95772a-10.08653,-10.08653 0 0 1 -0.76774,-0.95306c-3.97108,-5.4139 -5.99632,-12.00589 -7.4921,-18.53169c-2.5812,-11.41022 -3.74605,-23.24403 -1.87964,-34.77339z" class="cls-12"/>
     <path id="svg_183" d="m1632.33116,608.17752c-11.97941,4.26229 -24.40888,7.65094 -35.28963,14.20321a-31.00087,-31.00087 0 0 0 -8.80255,7.33325a-14.75917,-14.75917 0 0 0 -3.24305,10.74838c0.52948,3.86518 3.00478,7.57152 2.17085,11.39699c-0.55595,2.51501 -2.43559,4.47408 -3.87842,6.61846a-21.07318,-21.07318 0 0 0 -2.71357,17.57863c1.87964,6.30077 6.61846,11.34404 9.26584,17.3536a-28.86972,-28.86972 0 0 1 2.23704,15.75193c10.04682,-0.13237 19.22001,-5.61245 29.12122,-7.45239c7.55828,-1.38988 15.42101,-0.63537 22.89987,-2.35617a-36.12355,-36.12355 0 0 0 26.92389,-29.01533a-19.85538,-19.85538 0 0 0 17.55216,-5.87719a-25.8517,-25.8517 0 0 0 6.8832,-18.87585c-3.0842,-49.54579 -31.45092,-75.45044 -31.45092,-75.45044s-27.10921,36.428 -31.67595,38.04291z" class="cls-13"/>
     <path id="svg_184" d="m1659.10945,608.53492c1.24427,12.21768 -3.03125,24.28975 -7.94215,35.55437c-4.77853,10.98664 -10.27185,21.74826 -17.65805,31.15971s-16.77118,17.51244 -27.79753,22.05271" class="cls-11"/>
     <path id="svg_185" d="m1648.40078,689.80961a-98.64152,-98.64152 0 0 0 -2.46207,-34.61454" class="cls-11"/>
     <path id="svg_186" d="m1643.95317,659.08672c-12.4427,7.94215 -31.58329,12.82658 -46.32922,11.99265" class="cls-11"/>
     <path id="svg_187" d="m1674.38485,657.04823c-14.98419,-6.31401 -15.60633,-28.34024 -16.00344,-34.60131" class="cls-11"/>
     <path id="svg_188" d="m1654.30445,636.45158c-11.46317,8.22013 -28.0358,10.69543 -40.227,7.6377" class="cls-11"/>
     <path id="svg_189" d="m1623.0256,695.46177a-18.10811,-18.10811 0 0 0 3.97108,-12.81334" class="cls-11"/>
     <path id="svg_190" d="m1623.72716,685.75911c-5.29477,2.64738 -12.35005,3.32247 -19.85538,1.42959" class="cls-11"/>
     <path id="svg_191" d="m1918.43394,661.80028c-1.41635,0.07942 -11.01312,7.18765 -14.70622,9.58353a-10.06006,-10.06006 0 0 0 -2.8327,2.38265a-3.56073,-3.56073 0 0 0 -0.52948,3.50778a-4.40789,-4.40789 0 0 0 4.48732,2.77975c4.79176,0 6.44638,-1.58843 8.77608,-3.97108c7.71712,-7.98186 4.805,-14.28264 4.805,-14.28264z" class="cls-14"/>
     <path id="svg_192" d="m1875.40071,633.14235c-4.16963,-1.87964 -8.64371,-3.75929 -13.23692,-3.17686c-1.77375,0.22503 -3.6931,1.03248 -4.27553,2.64738a-3.97108,-3.97108 0 0 0 1.32369,4.07697a-9.41145,-9.41145 0 0 0 4.11668,1.85317c5.55951,1.32369 13.36929,0.6089 18.88908,-0.95306a-47.65291,-47.65291 0 0 0 -6.81701,-4.4476z" class="cls-14"/>
     <path id="svg_193" d="m1847.86792,694.86611c1.86641,1.17809 3.97108,2.75328 3.97108,4.96384s-2.30322,3.89165 -4.51379,3.90489a-9.26584,-9.26584 0 0 1 -5.93014,-2.64738c-7.0288,-6.1684 -6.15517,-13.23692 -6.15517,-13.23692s10.54982,5.70511 12.62802,7.01557z" class="cls-14"/>
     <path id="svg_194" d="m1842.32165,713.70225a-9.09376,-9.09376 0 0 1 4.28876,3.05773a-2.91212,-2.91212 0 0 1 0.43682,2.42236c-0.47653,1.32369 -1.32369,2.64738 -4.77853,1.9723c-10.92046,-1.98554 -13.23692,-9.4644 -13.23692,-9.4644s10.39098,0.76774 13.28987,2.01201z" class="cls-14"/>
     <path id="svg_195" d="m1810.32802,697.16933a-17.208,-17.208 0 0 0 -11.66173,5.96985a-10.70867,-10.70867 0 0 0 -2.34293,4.34171a-4.71234,-4.71234 0 0 0 1.32369,4.56674a-4.84471,-4.84471 0 0 0 5.6654,0a-11.52936,-11.52936 0 0 0 3.60044,-4.77853c1.16485,-2.40912 3.41513,-10.09977 3.41513,-10.09977z" class="cls-14"/>
     <path id="svg_196" d="m1888.54497,537.43942l31.76861,28.04903c5.65216,4.99032 11.42346,10.11301 14.99743,16.7447c7.7436,14.25616 3.30923,32.77461 -7.08175,45.20408s-25.67962,19.76272 -40.91532,25.0972s-31.21266,9.08053 -45.7865,16.14904c-9.13347,4.42113 -18.39932,11.02635 -20.84815,20.86139a-20.83491,-20.83491 0 0 0 18.94203,25.93113" class="cls-6"/>
     <path id="svg_197" d="m1802.91534,707.2691c2.89889,-8.90845 14.18998,-14.32235 19.33914,-22.02623" class="cls-6"/>
     <path id="svg_198" d="m1843.44679,697.08991c-2.2238,-2.34293 -4.88442,-4.27553 -6.83025,-6.86996c-4.09021,-5.46685 -4.43437,-14.33558 1.62814,-19.85538" class="cls-6"/>
     <path id="svg_199" d="m1900.5641,647.27938a-60.55891,-60.55891 0 0 0 -33.46293,-12.48242" class="cls-6"/>
     <path id="svg_200" d="m1921.98143,634.14836a-33.01288,-33.01288 0 0 1 -11.10578,35.99118" class="cls-6"/>
     <path id="svg_201" d="m1579.92619,687.82407a-4.69911,-4.69911 0 0 1 -0.68832,4.68587a-3.46807,-3.46807 0 0 1 -3.66663,0.82069c-9.26584,-4.10345 -8.29955,-18.61111 -8.29955,-18.61111s8.82903,1.27074 12.6545,13.10455z" class="cls-14"/>
     <path id="svg_202" d="m1580.15122,660.63543c6.03604,-10.88075 -15.3813,-10.04682 -23.08519,-3.66663c0,0 17.89632,13.02513 23.08519,3.66663z" class="cls-14"/>
     <path id="svg_203" d="m1553.09496,687.00338c1.45606,1.98554 1.9723,4.95061 0.39711,6.84349a-5.29477,-5.29477 0 0 1 -5.03003,1.50901a-11.66173,-11.66173 0 0 1 -5.65216,-3.4416c-7.04204,-8.76284 -3.73281,-17.34036 -3.73281,-17.34036s11.64849,9.15995 14.0179,12.42947z" class="cls-14"/>
     <path id="svg_204" d="m1468.14041,660.06625a-4.83148,-4.83148 0 0 1 -0.91335,4.95061a-4.22258,-4.22258 0 0 1 -3.13715,0.92658a-9.51735,-9.51735 0 0 1 -3.20333,-0.95306a-10.17919,-10.17919 0 0 1 -4.92413,-4.89766c-2.64738,-5.45361 -0.84716,-12.1912 -0.84716,-12.1912s11.72791,7.94215 13.02513,12.16473z" class="cls-14"/>
     <path id="svg_205" d="m1494.85251,640.10497a-13.73992,-13.73992 0 0 0 14.20321,2.30322a-7.28031,-7.28031 0 0 0 3.00478,-2.30322c1.68109,-2.3297 1.09866,-5.75806 -0.66185,-8.04805a-17.80366,-17.80366 0 0 0 -7.0288,-4.87119c-4.76529,-2.15762 -12.15149,-2.64738 -17.208,-3.87842c0.01324,0 0.02647,10.06006 7.69065,16.79765z" class="cls-14"/>
     <path id="svg_206" d="m1573.25479,685.49437c-3.15039,-10.31156 -12.05883,-18.08163 -21.97329,-22.29097s-20.83491,-5.29477 -31.59653,-6.00956s-21.61589,-1.03248 -32.02011,-3.86518c-10.12624,-2.74004 -20.21278,-8.47163 -24.56772,-18.02868c-5.29477,-11.63525 -0.6089,-25.53402 6.83025,-35.93824s17.43302,-18.76995 24.62067,-29.33301c3.29599,-4.84471 6.04927,-10.52335 5.38743,-16.36083c-0.88687,-7.77007 -7.43915,-13.48842 -13.51489,-18.41256" class="cls-6"/>
     <path id="svg_207" d="m1548.47527,689.26689a-61.65757,-61.65757 0 0 1 -14.20321,-30.73613" class="cls-6"/>
     <path id="svg_208" d="m1572.4341,658.83521a-49.30753,-49.30753 0 0 0 -12.41623,-2.18409a-18.91556,-18.91556 0 0 0 -12.12502,5.29477" class="cls-6"/>
     <path id="svg_209" d="m1461.16455,659.41764a-21.00699,-21.00699 0 0 1 -6.32725,-14.17674c-0.19855,-5.29477 2.74004,-11.72791 6.2743,-15.68575" class="cls-6"/>
     <path id="svg_210" d="m1501.10034,635.36616a-212.74377,-212.74377 0 0 0 -22.72779,-18.65082c-3.87842,-2.72681 -11.55583,-6.20812 -14.95772,-5.29477" class="cls-6"/>
     <path id="svg_211" d="m1412.46592,475.9407a-58.24245,-58.24245 0 0 1 6.26106,-3.05773a-75.17247,-75.17247 0 0 1 26.16939,-5.79777c13.07808,-0.48977 26.47384,2.39588 39.07539,-1.32369a-38.5062,-38.5062 0 0 0 15.42101,-8.93492c0.43682,-0.21179 0.87364,-0.45006 1.32369,-0.70156c1.04572,8.8555 -21.03347,20.39809 -27.79753,23.40287a-79.99071,-79.99071 0 0 1 -38.85036,6.7773c-5.79777,-0.46329 -11.74115,-1.60167 -16.51968,-4.89766a-17.68452,-17.68452 0 0 1 -5.08298,-5.46685z" class="cls-12"/>
     <path id="svg_212" d="m1434.12152,480.9972c-5.79777,-0.46329 -11.74115,-1.60167 -16.53291,-4.89766s-8.15394,-9.18642 -7.0288,-14.89153c1.32369,-6.61846 8.16718,-10.96017 14.89153,-11.78086s13.43547,1.04572 20.06717,2.36941a-143.17052,-143.17052 0 0 0 44.70108,2.05172a-26.15615,-26.15615 0 0 0 10.49688,-3.05773c1.04572,8.8555 -21.0467,20.39809 -27.79753,23.40287a-79.96423,-79.96423 0 0 1 -38.79741,6.80378z" class="cls-10"/>
     <path id="svg_213" d="m1494.97164,456.403c-10.97341,9.63648 -39.1151,16.17552 -59.02342,14.07085c-5.99632,-0.63537 -12.0456,-2.42236 -16.65204,-6.31401" class="cls-11"/>
     <path id="svg_214" d="m1515.44916,564.681l-107.06021,0.22503a-22.75426,-22.75426 0 0 1 -22.80721,-22.71455l0,0a-22.75426,-22.75426 0 0 1 22.70132,-22.79398l73.23988,-0.14561" class="cls-15"/>
     <path id="svg_215" d="m1839.40953,486.06694l74.88125,-0.15884a-12.83981,-12.83981 0 0 0 12.81334,-12.93247l0,0a-12.83981,-12.83981 0 0 0 -12.86629,-12.81334l-21.82768,0" class="cls-15"/>
     <path id="svg_216" d="m1958.92568,428.07599c25.69286,-0.1059 26.18263,-38.30765 -6.44638,-38.24146l-481.00318,0.99277c-20.19954,0 -22.33068,31.54358 2.64738,31.49063c49.66492,-0.1059 51.31954,23.58819 23.74703,23.64114" class="cls-16"/>
     <path id="svg_217" d="m1952.92935,429.14819a-6.34048,-6.34048 0 1 1 7.30678,5.17564a-6.34048,-6.34048 0 0 1 -7.30678,-5.17564z" class="cls-5"/>
     <path id="svg_218" d="m1485.58667,445.78699a-6.34048,-6.34048 0 1 1 7.32002,5.18887a-6.32725,-6.32725 0 0 1 -7.32002,-5.18887z" class="cls-17"/>
     <path id="svg_219" d="m1478.65052,335.16606l398.28567,-0.82069a-9.62324,-9.62324 0 0 1 9.63648,9.59677l0.54271,263.85152a-9.62324,-9.62324 0 0 1 -9.59677,9.64971l-398.28567,0.82069a-9.61,-9.61 0 0 1 -9.63648,-9.59677l-0.55595,-263.86476a-9.63648,-9.63648 0 0 1 9.61,-9.63648z" class="cls-12"/>
     <path id="svg_220" d="m1486.44707,340.20932l398.28567,-0.82069a-9.62324,-9.62324 0 0 1 9.63648,9.59677l0.54271,263.85152a-9.62324,-9.62324 0 0 1 -9.57029,9.64971l-398.28567,0.82069a-9.62324,-9.62324 0 0 1 -9.63648,-9.61l-0.56919,-263.82504a-9.62324,-9.62324 0 0 1 9.59677,-9.66295z" class="cls-18"/>
     <path id="svg_221" d="m1487.6781,623.30732l396.57811,-0.82069a-10.48364,-10.48364 0 0 0 10.45717,-10.52335l0,-9.107l-417.51892,0.8604l0,9.13347a-10.48364,-10.48364 0 0 0 10.48364,10.45717z" class="cls-9"/>
     <path id="svg_222" d="m1883.77968,339.38863l-59.92353,0.11913l0.59566,263.5206l70.39394,-0.14561l-0.56919,-253.01048a-10.4704,-10.4704 0 0 0 -10.49688,-10.48364z" class="cls-2"/>
     <path id="svg_223" d="m1486.91036,620.65994a-6.98909,-6.98909 0 0 1 -6.97586,-6.96262l-0.54271,-263.82504a-6.97586,-6.97586 0 0 1 6.96262,-6.98909l398.29891,-0.82069a-6.97586,-6.97586 0 0 1 6.97586,6.94938l0.54271,263.83828a-7.00233,-7.00233 0 0 1 -6.96262,6.98909l-398.29891,0.82069l0,0m0,2.64738l0,0l398.28567,-0.82069a-9.62324,-9.62324 0 0 0 9.59677,-9.64971l-0.54271,-263.85152a-9.62324,-9.62324 0 0 0 -9.62324,-9.59677l0,0l-398.28567,0.82069a-9.61,-9.61 0 0 0 -9.61,9.63648l0.54271,263.85152a-9.62324,-9.62324 0 0 0 9.63648,9.61z" class="cls-9"/>
     <rect id="svg_224" transform="matrix(-1.32368, 0.00277232, -0.00277232, -1.32368, 3061.41, 1052.95)" rx="2.79" height="5.92" width="40.46" y="519.86582" x="888.52191" class="cls-18"/>
     <rect id="svg_225" transform="matrix(-1.32368, 0.00277232, -0.00277232, -1.32368, 3061.41, 1052.94)" rx="5.11" height="39.91" width="39.91" y="350.80582" x="887.47191" class="cls-18"/>
     <rect id="svg_226" transform="matrix(-1.32368, 0.00277232, -0.00277232, -1.32368, 3061.41, 1052.94)" rx="3.64" height="7.73" width="110.76" y="472.21582" x="942.13191" class="cls-2"/>
     <rect id="svg_227" transform="matrix(-1.32368, 0, 0, -1.32368, 3061.78, 1052.29)" rx="3.64" height="7.73" width="89.05" y="352.09917" x="958.87154" class="cls-2"/>
     <rect id="svg_228" transform="matrix(-1.32368, 0.00277232, -0.00277232, -1.32368, 3061.41, 1052.94)" rx="3.64" height="7.73" width="116.31" y="437.27582" x="1059.94191" class="cls-2"/>
     <rect id="svg_229" transform="matrix(-1.32368, 0.00277232, -0.00277232, -1.32368, 3061.41, 1052.94)" rx="3.64" height="7.73" width="110.76" y="488.20582" x="942.12191" class="cls-2"/>
     <rect id="svg_230" transform="matrix(-1.32368, 0.00277232, -0.00277232, -1.32368, 3061.41, 1052.94)" rx="3.64" height="7.73" width="110.76" y="504.18582" x="942.13191" class="cls-2"/>
     <rect id="svg_231" transform="matrix(-1.32368, 0.00277232, -0.00277232, -1.32368, 3061.41, 1052.94)" rx="6.01" height="56.81" width="116.31" y="465.77582" x="1059.94191" class="cls-2"/>
     <path id="svg_232" d="m1871.81351,612.88987a-3.37541,-3.37541 0 1 1 3.37541,3.36218a-3.34894,-3.34894 0 0 1 -3.37541,-3.36218z" class="cls-2"/>
     <circle id="svg_233" r="3.3754" cy="612.91634" cx="1860.89305" class="cls-2"/>
     <path id="svg_234" d="m1843.235,612.95605a-3.37541,-3.37541 0 1 1 3.38865,3.36218a-3.38865,-3.38865 0 0 1 -3.38865,-3.36218z" class="cls-2"/>
     <circle id="svg_235" transform="matrix(-0.131929, 1.3171, -1.3171, -0.131929, 3423.91, 864.671)" r="7.37" cy="1236.6012" cx="-91.1689" class="cls-2"/>
     <rect id="svg_236" transform="matrix(-1.32368, 0, 0, -1.32368, 3061.89, 1052.54)" rx="1.37" height="2.92" width="35.39" y="392.01917" x="891.17154" class="cls-18"/>
     <rect id="svg_237" transform="matrix(-1.32368, 0.00277232, -0.00277232, -1.32368, 3061.41, 1052.94)" rx="1.37" height="2.92" width="35.39" y="400.27582" x="890.32191" class="cls-18"/>
     <path id="svg_238" d="m1787.28254,504.36036l12.21768,-0.11913l-0.09266,-51.2004l10.58954,0a-6.73759,-6.73759 0 0 1 6.75083,6.72436l0.19855,94.68369a-6.81701,-6.81701 0 0 1 -6.80378,6.81701l-22.68808,0l-0.17208,-56.90552z" class="cls-2"/>
     <path id="svg_239" d="m1707.96692,561.4512l0,-1.32369a-6.61846,-6.61846 0 0 1 -6.61846,-6.61846l-0.19855,-92.31428a-6.61846,-6.61846 0 0 1 6.61846,-6.61846l100.95799,-0.21179a-6.61846,-6.61846 0 0 1 6.61846,6.61846l0.19855,92.31428a-6.61846,-6.61846 0 0 1 -6.61846,6.61846l-100.93151,0.21179l0,1.32369m0,0l0,0l100.94475,-0.21179a-7.94215,-7.94215 0 0 0 7.94215,-7.94215l-0.19855,-92.31428a-7.94215,-7.94215 0 0 0 -7.94215,-7.94215l0,0l-100.94475,0.21179a-7.94215,-7.94215 0 0 0 -7.94215,7.94215l0.17208,92.31428a-7.94215,-7.94215 0 0 0 7.94215,7.94215l0.02647,0z" class="cls-2"/>
     <rect id="svg_240" transform="matrix(-1.2911, -0.29191, 0.29191, -1.2911, 3084.08, 1050.99)" rx="6.01" height="63.93" width="116.31" y="95.46663" x="1122.08615" class="cls-2"/>
     <polygon id="svg_241" points="1800.029733657837,303.1988830566406 1818.8657932281494,303.1592102050781 1823.485544204712,327.1709899902344 1795.515817642212,327.2239074707031 1800.029733657837,303.1988830566406 " class="cls-9"/>
     <path id="svg_242" d="m1818.27017,327.17096c0,-1.95906 0.37063,-5.29477 -0.93982,-5.29477s-0.76774,3.12391 -2.25028,3.04449c-0.95306,0 0.45006,-10.43069 -3.13715,-10.68219c-2.4753,-0.17208 -2.02525,5.08298 -2.27675,8.37897a-1.53548,-1.53548 0 0 1 -3.04449,0.31769c0,-1.65461 0.07942,-2.75328 0,-4.63292c-0.13237,-3.12391 -4.95061,-2.30322 -4.77853,1.89288s0,7.01557 0,7.01557l16.42702,-0.03971z" class="cls-2"/>
     <path id="svg_243" d="m1822.77072,312.67653a-5.14916,-5.14916 0 0 1 1.12514,0.11913a-3.97108,-3.97108 0 0 1 2.88565,2.17085c1.91935,4.06373 -3.13715,11.70144 -3.3357,12.03236l-0.2515,-1.32369c0,-0.07942 4.43437,-6.61846 2.64738,-10.29832a-2.99154,-2.99154 0 0 0 -2.23704,-1.65461a-3.75929,-3.75929 0 0 0 -0.95306,-0.09266c-6.7773,0 -18.37284,12.6545 -18.53169,12.8001c-0.47653,0.56919 -1.32369,0 -1.04572,-0.45006c0.62214,-0.64861 12.40299,-13.28987 19.69654,-13.3031z" class="cls-19"/>
     <path id="svg_244" d="m1624.79935,640.92566c26.77829,1.01924 63.64311,-18.78319 50.56503,-67.20384c0.27798,-4.09021 -2.17085,-7.01557 -4.77853,-6.20812s-0.30445,8.55105 -0.30445,8.55105c-4.46084,36.00442 -12.8001,42.22577 -26.96361,42.10664l-33.21143,0c-8.20689,-1.2178 -23.1249,-6.94938 -25.36194,-35.73968l-8.27307,-1.53548c-0.63537,20.86139 4.42113,58.34834 48.32799,60.02943z" class="cls-12"/>
     <path id="svg_245" d="m1624.79935,645.135c26.77829,1.03248 63.64311,-18.76995 50.56503,-67.1906l-5.08298,2.34293c-4.46084,35.99118 -12.8001,42.22577 -26.96361,42.0934l-33.21143,0c-8.20689,-1.20456 -23.52201,-8.48487 -25.75905,-37.30164l-7.87597,0c-0.63537,20.88786 4.42113,58.37482 48.32799,60.0559z" class="cls-20"/>
     <path id="svg_246" d="m1630.27944,644.35402l3.97108,-8.7496s-0.47653,-4.9109 -5.29477,-4.81824s-5.49332,2.35617 -5.49332,2.35617l-0.62214,10.03359l7.43915,1.17809z" class="cls-21"/>
     <path id="svg_247" d="m1609.8284,651.67404c4.54026,-8.02157 6.53904,-10.51011 12.46918,-11.71467c7.67741,-1.56196 16.29465,3.61368 12.28386,16.37407c-3.25628,10.40422 -8.19365,8.80255 -13.03837,8.40544s-16.61233,-4.43437 -11.71467,-13.06484z" class="cls-21"/>
     <path id="svg_248" d="m1627.85708,657.96158a-3.22981,-3.22981 0 0 0 3.67986,-0.88687a-3.97108,-3.97108 0 0 0 1.01924,-3.86518a-3.52102,-3.52102 0 0 0 3.30923,-3.6931c1.32369,2.95183 0.58242,6.03604 0.83393,9.06729s-0.07942,6.31401 -2.03849,8.63047a-9.82179,-9.82179 0 0 1 -2.9386,2.26351a-15.22246,-15.22246 0 0 1 -13.6605,0.19855a-8.31279,-8.31279 0 0 0 -6.15517,-1.08543c-5.83748,1.41635 -9.26584,-2.54149 -5.74482,-6.24783a-4.61968,-4.61968 0 0 1 -2.88565,-1.98554a-0.92658,-0.92658 0 0 1 0,-0.88687a-1.09866,-1.09866 0 0 1 0.54271,-0.33092a-6.36696,-6.36696 0 0 1 3.07097,-0.23826c-0.38387,-0.34416 -2.55473,-0.46329 -3.21657,-1.73404c-1.74727,-3.36218 5.1624,-1.65461 6.22135,-1.32369c-1.20456,-0.22503 -4.35495,-2.74004 -3.34894,-4.47408c0.19855,-0.34416 4.46084,-2.81946 8.93492,2.38265a-8.22013,-8.22013 0 0 0 3.799,2.74004a-6.15517,-6.15517 0 0 0 3.64015,-0.56919c0.8604,-0.31769 3.04449,-1.65461 3.66663,-0.8604s-0.13237,2.21057 1.27074,2.89889z" class="cls-19"/>
     <path id="svg_249" d="m1583.53987,585.13205c1.17809,-4.09021 2.38265,-4.48732 0.93982,-5.13592s-2.64738,1.62814 -2.64738,1.62814l-6.61846,-1.32369s1.49577,4.31524 2.54149,4.83148s5.78453,0 5.78453,0z" class="cls-21"/>
     <path id="svg_250" d="m1670.28141,580.28733c-0.87364,-2.15762 -1.1119,-2.17085 -2.31646,-4.76529c-2.31646,-4.95061 3.09744,-12.77363 6.45962,-4.23581a-24.30298,-24.30298 0 0 1 0.93982,6.61846l-5.08298,2.38265z" class="cls-21"/>
     <path id="svg_251" d="m1618.39268,668.97469c-4.54026,-0.23826 -10.12624,2.96507 -13.68697,-1.15161c-0.31769,-0.38387 -0.97953,0.11913 -0.68832,0.52948c3.38865,4.88442 9.70266,1.25751 14.37529,1.32369c0.48977,0 0.47653,-0.72803 0,-0.7545l0,0.05295z" class="cls-19"/>
     <path id="svg_252" d="m1616.56599,671.52942c3.11068,-0.52948 6.10222,0.92658 9.26584,0.43682a-13.59432,-13.59432 0 0 0 6.61846,-3.34894c0.48977,-0.42358 -0.14561,-1.25751 -0.68832,-0.90011c-2.64738,1.76051 -5.29477,3.28276 -8.59076,3.03125c-2.40912,-0.17208 -4.47408,-0.88687 -6.8832,-0.17208a-0.48977,-0.48977 0 0 0 0.26474,0.95306l0.01324,0z" class="cls-19"/>
     <path id="svg_253" d="m1634.22404,667.24066a-7.26707,-7.26707 0 0 0 3.70634,-5.78453c0.18532,-1.86641 0.23826,-6.18164 -1.65461,-7.2406a-0.46329,-0.46329 0 0 0 -0.55595,0.71479c1.2178,1.23103 1.32369,4.5535 1.23103,6.12869a-7.20088,-7.20088 0 0 1 -3.03125,5.65216c-0.31769,0.23826 0,0.7545 0.30445,0.52948z" class="cls-19"/>
     <path id="svg_254" d="m1600.64197,659.78827c1.12514,1.94583 3.97108,3.67986 6.20812,2.43559a-0.39711,-0.39711 0 0 0 -0.19855,-0.72803a-9.87474,-9.87474 0 0 1 -2.79299,-0.18532a-4.92413,-4.92413 0 0 1 -2.64738,-1.86641c-0.2515,-0.3574 -0.82069,0 -0.59566,0.34416l0.02647,0z" class="cls-19"/>
     <path id="svg_255" d="m1747.94241,457.85906c-14.04437,-5.14916 -26.23557,-21.25849 -23.42935,-32.95993c3.15039,-13.23692 12.27062,-18.9288 12.27062,-18.9288l2.88565,5.29477s-7.29354,11.39699 -6.61846,16.78441c1.00601,8.63047 11.91323,14.38853 11.91323,14.38853l2.97831,15.42101z" class="cls-17"/>
     <path id="svg_256" d="m1782.50401,308.65251s8.61723,-3.48131 10.77485,-5.44037l-17.07563,0l0,5.42714l6.30077,0.01324z" class="cls-19"/>
     <path id="svg_257" d="m1744.76555,308.98343a-13.80611,-13.80611 0 0 1 -2.89889,-5.67864l11.64849,0a-13.54137,-13.54137 0 0 1 -2.17085,5.67864l-6.57875,0z" class="cls-19"/>
     <path id="svg_258" d="m1744.05076,308.73193l7.94215,0c-0.15884,9.37174 1.77375,41.31243 3.64015,65.19183c1.09866,14.00466 2.18409,25.25604 2.81946,27.53279l-4.26229,0.93982l-16.08286,3.57397c-2.74004,-12.58831 3.61368,-70.32775 5.94338,-97.23841z" class="cls-22"/>
     <path id="svg_259" d="m1773.29112,401.94632c6.20812,-9.76885 7.80978,-80.40105 10.41746,-93.49236l-7.54504,-0.42358a-685.67243,-685.67243 0 0 1 -27.16216,94.59103l24.28975,-0.67508z" class="cls-23"/>
     <path id="svg_260" d="m1745.85098,402.6214c3.64015,-9.88798 6.90967,-19.56417 9.79532,-28.71088c1.09866,14.00466 2.18409,25.25604 2.81946,27.53279l-4.26229,0.93982l-8.3525,0.23826z" class="cls-12"/>
     <path id="svg_261" d="m1773.29112,401.94632c6.20812,-9.76885 7.80978,-80.40105 10.41746,-93.49236l-7.54504,-0.42358a-685.67243,-685.67243 0 0 1 -27.16216,94.59103l24.28975,-0.67508z" class="cls-23"/>
     <path id="svg_262" d="m1768.5523,480.79865s4.83148,-18.41256 -7.22736,-18.41256l0.71479,-4.69911l-9.17319,-1.00601l1.98554,6.55228s-1.87964,11.60878 -1.87964,13.71345c-0.27798,3.87842 10.58954,10.76162 15.57985,3.85194z" class="cls-21"/>
     <rect id="svg_263" transform="matrix(-1.32368, 0.00254131, -0.00254131, -1.32368, 3061.41, 1052.93)" height="11.35" width="2.69" y="418.47364" x="950.6664" class="cls-19"/>
     <rect id="svg_264" transform="matrix(-1.32368, 0.00254131, -0.00254131, -1.32368, 3061.41, 1052.93)" rx="1.95" height="4.31" width="19.33" y="414.16364" x="942.3464" class="cls-9"/>
     <path id="svg_265" d="m1802.9021,482.47973c0.1059,3.41513 2.91212,2.51501 1.32369,8.07452c-0.95306,3.4416 -8.06128,-0.54271 -7.17441,-2.92536s1.90612,-6.15517 1.90612,-6.15517l3.9446,1.00601z" class="cls-21"/>
     <path id="svg_266" d="m1761.23228,458.79889c18.04192,-1.19132 19.23324,-7.28031 27.30777,-6.32725c11.91323,1.41635 9.86151,23.60143 8.37897,31.55682l7.1347,0s12.86629,-50.5518 -27.79753,-41.20653c1.56196,-8.8555 -8.53781,-23.31022 1.25751,-40.86237c-15.43425,-4.1961 -29.82278,-5.22858 -42.14635,0.07942c2.15762,2.89889 -4.42113,32.28485 8.45839,53.42421c2.52825,4.11668 16.08286,3.42836 17.40655,3.3357z" class="cls-9"/>
     <path id="svg_267" d="m1761.23228,458.79889c18.04192,-1.19132 19.23324,-7.28031 27.30777,-6.32725c11.91323,1.41635 9.86151,23.60143 8.37897,31.55682l7.1347,0s12.86629,-50.5518 -27.79753,-41.20653c1.56196,-8.8555 -8.53781,-23.31022 1.25751,-40.86237c-15.43425,-4.1961 -29.82278,-5.22858 -42.14635,0.07942c2.15762,2.89889 -4.42113,32.28485 8.45839,53.42421c2.52825,4.11668 16.08286,3.42836 17.40655,3.3357z" class="cls-9"/>
     <path id="svg_268" d="m1763.72082,477.27762c-1.17809,-0.30445 -2.55473,-0.52948 -3.17686,-1.53548a-3.70634,-3.70634 0 0 1 -0.34416,-2.21057a-1.83993,-1.83993 0 0 1 -1.93259,1.32369a-1.81346,-1.81346 0 0 1 -1.57519,-1.66785a-3.04449,-3.04449 0 0 1 0.26474,-1.12514a-13.81934,-13.81934 0 0 1 1.32369,-2.55473c-1.4693,-0.54271 -2.64738,-4.84471 -3.4416,-6.19488c-2.4753,0.62214 -7.94215,2.75328 -8.47163,11.52936c-0.22503,4.09021 1.01924,8.98787 5.45361,11.71467c3.13715,1.91935 8.33926,1.94583 11.91323,1.03248c2.89889,-0.74127 7.54504,-3.65339 5.37419,-7.04204a-9.107,-9.107 0 0 0 -5.38743,-3.26952z" class="cls-20"/>
     <path id="svg_269" d="m1748.2601,482.8636a-4.34171,-4.34171 0 0 1 -4.81824,-1.13838a-9.39821,-9.39821 0 0 1 -0.9663,-3.83871a-2.9386,-2.9386 0 0 0 -0.83393,-1.70756a-3.58721,-3.58721 0 0 0 -2.2238,-0.68832a-50.0885,-50.0885 0 0 1 -5.82424,-0.18532a-5.29477,-5.29477 0 0 1 -4.42113,-3.1901c-0.30445,-0.99277 -0.14561,-2.0782 -0.503,-3.05773c-0.54271,-1.45606 -2.09143,-2.27675 -3.4416,-3.12391a-22.38363,-22.38363 0 0 1 -7.08175,-7.05528a-12.86629,-12.86629 0 0 1 -2.13114,-5.85072c-0.13237,-2.0782 -1.62814,-4.83148 -1.23103,-6.86996s2.64738,-5.20211 6.89644,-6.61846c7.41267,-2.39588 9.76885,-3.42836 16.87707,0.79422c0.84716,0.51624 2.52825,2.25028 3.29599,2.85917a-3.81223,-3.81223 0 0 1 1.2178,1.91935a-8.04805,-8.04805 0 0 1 -1.16485,6.10222c-1.05895,1.85317 -2.50178,3.49455 -3.58721,5.29477a-6.61846,-6.61846 0 0 0 -1.1119,3.61368a-1.81346,-1.81346 0 0 0 0.48977,1.32369a-2.09143,-2.09143 0 0 0 1.13838,0.51624c1.56196,0.31769 3.28276,0 4.69911,0.68832a-3.29599,-3.29599 0 0 1 1.70756,3.77252c-0.27798,0.95306 -1.00601,1.76051 -1.20456,2.72681a-3.70634,-3.70634 0 0 0 1.80022,3.65339a-10.35127,-10.35127 0 0 0 4.18287,1.32369a-4.87119,-4.87119 0 0 1 2.06496,0.66185a-2.80623,-2.80623 0 0 1 1.04572,2.28999c-0.03971,2.87241 -2.27675,4.92413 -4.87119,5.78453z" class="cls-20"/>
     <path id="svg_270" d="m1749.59703,475.46417c-8.93492,-1.93259 2.34293,-10.39098 -2.38265,-14.44148c-1.32369,-1.15161 -2.91212,-0.78098 -4.48732,-1.00601c-6.06251,-0.83393 -2.75328,-4.95061 -2.3297,-8.18042c0,-0.48977 -0.7545,-0.58242 -0.8604,-0.11913c-0.51624,2.23704 -2.55473,4.95061 -1.49577,7.33325c0.92658,2.0782 3.22981,1.83993 5.10945,1.89288c2.36941,0.07942 4.97708,0 4.09021,4.71234a-17.61834,-17.61834 0 0 1 -1.44282,3.0842a-5.83748,-5.83748 0 0 0 -0.51624,3.50778a-4.81824,-4.81824 0 0 0 4.18287,3.67986c0.30445,0 0.43682,-0.39711 0.13237,-0.46329z" class="cls-20"/>
     <path id="svg_271" d="m1767.98311,486.38463c-6.8832,3.49455 -13.73992,2.80623 -19.55093,-2.3297a-0.41034,-0.41034 0 0 0 -0.58242,0.58242a-15.26217,-15.26217 0 0 0 20.33191,2.0782a-0.19855,-0.19855 0 0 0 -0.19855,-0.33092z" class="cls-20"/>
     <polygon id="svg_272" points="1536.7869358062744,464.7952575683594 1539.778512954712,458.7988586425781 1532.4849338531494,455.8205871582031 1531.7039279937744,462.7170104980469 1536.7869358062744,464.7952575683594 " class="cls-21"/>
     <path id="svg_273" d="m1532.39242,484.31967c16.53291,-7.20088 9.75561,-24.63391 -0.30445,-22.59542c-4.9109,1.00601 -7.3862,16.77118 -7.3862,16.77118l7.69065,5.82424z" class="cls-21"/>
     <path id="svg_274" d="m1526.89909,486.80821a-8.7496,-8.7496 0 0 0 1.94583,2.80623a-2.50178,-2.50178 0 0 0 3.16362,0.15884c1.1119,-1.03248 0.46329,-2.96507 -0.67508,-3.97108c0.97953,-0.11913 2.13114,0.55595 2.84594,-0.1059s0.34416,-1.40311 0,-2.0782a-9.08053,-9.08053 0 0 0 -3.38865,-3.87842c0.83393,-0.47653 1.81346,-1.40311 1.32369,-2.2238c-0.14561,-0.22503 -0.37063,-0.38387 -0.51624,-0.62214c-0.31769,-0.52948 0,-1.20456 0.31769,-1.74727c0.51624,-0.8604 1.08543,-1.69433 1.68109,-2.50178a-1.4693,-1.4693 0 0 1 -2.36941,-0.41034a-2.52825,-2.52825 0 0 1 0.59566,-2.64738a-2.64738,-2.64738 0 0 1 1.32369,-0.84716c0.46329,-0.1059 2.46207,-6.30077 0.90011,-7.51857c-1.93259,-1.49577 -8.4981,-0.19855 -9.45116,1.49577a-4.18287,-4.18287 0 0 0 -3.71957,-1.53548a-2.28999,-2.28999 0 0 0 -1.68109,3.16362a-3.86518,-3.86518 0 0 0 -4.67263,5.59922c-0.80745,0.23826 -0.9663,1.32369 -0.76774,2.15762a-5.04327,-5.04327 0 0 0 3.42836,3.52102a-1.68109,-1.68109 0 0 0 -1.54872,1.65461a-3.48131,-3.48131 0 0 0 0.92658,2.27675a-7.71712,-7.71712 0 0 0 5.69188,2.71357c2.34293,0.26474 3.61368,2.62091 4.64616,4.54026z" class="cls-14"/>
     <path id="svg_275" d="m1542.38629,309.80412s9.67619,-4.64616 10.97341,-6.08898c0,0 -19.03469,-0.8604 -20.51723,0s3.04449,6.06251 3.04449,6.06251l6.49933,0.02647z" class="cls-19"/>
     <path id="svg_276" d="m1506.39511,315.05918s8.51134,-6.55228 9.47763,-8.23336c0,0 -20.06717,2.97831 -20.06717,4.28876s4.23581,5.29477 4.23581,5.29477l6.35372,-1.35017z" class="cls-19"/>
     <path id="svg_277" d="m1533.04103,399.49749c0.3574,-1.9723 13.59432,-54.27137 -24.30298,-85.60316l-10.97341,2.51501s12.77363,11.91323 18.79643,33.54235c5.69188,20.39809 1.16485,22.39687 -2.25028,33.63501c-3.77252,12.42947 -0.9663,21.45705 -0.9663,21.45705l19.69654,-5.54627z" class="cls-24"/>
     <path id="svg_278" d="m1551.14913,399.65633c6.00956,-14.36206 16.32112,-63.28571 -6.15517,-90.84498l-11.22491,0s8.84226,9.68943 9.82179,32.17895s-4.72558,32.35103 -8.76284,39.77694s-7.75683,20.02746 -7.75683,20.02746l24.07796,-1.13838z" class="cls-20"/>
     <path id="svg_279" d="m1559.06481,488.67461c2.99154,-10.51011 3.97108,-29.94191 -10.97341,-37.76493l-9.99387,2.43559s18.02868,9.45116 14.1635,33.33056l6.80378,1.99877z" class="cls-17"/>
     <path id="svg_280" d="m1586.61084,494.06204l-7.75683,0.95306s0.93982,-32.62901 -36.70598,-35.27639c-28.73735,-2.10467 -30.98763,-56.01864 -30.98763,-56.01864c9.26584,-6.23459 24.80599,-8.12747 44.72755,-6.69788c0,0 -1.32369,38.46649 1.89288,48.9766c0,-0.03971 31.27884,9.76885 28.83001,48.06326z" class="cls-9"/>
     <path id="svg_281" d="m1596.10171,499.97894c1.32369,-1.52225 -4.16963,-3.45484 -9.49087,-5.9169l-6.80378,0.83393a-27.71811,-27.71811 0 0 0 0,2.77975c0.09266,1.41635 0.79422,2.23704 1.60167,1.01924s4.26229,-1.64138 5.87719,-0.52948s7.50533,3.3357 8.81579,1.81346z" class="cls-21"/>
     <path id="svg_282" d="m1559.06481,488.67461c2.50178,2.46207 1.83993,2.30322 1.83993,2.30322l-7.61123,-1.7208s-1.68109,3.71957 -3.09744,3.82547s1.07219,-2.56796 0.503,-3.54749s1.56196,-2.85917 1.56196,-2.85917l6.80378,1.99877z" class="cls-21"/>
     <path id="svg_283" d="m1522.65004,483.221a-10.74838,-10.74838 0 0 1 -4.4476,-1.62814a-3.34894,-3.34894 0 0 1 -0.93982,-4.34171c0.43682,-0.68832 -0.59566,-1.23103 -1.05895,-0.62214a-4.15639,-4.15639 0 0 0 0.33092,5.12269a-7.01557,-7.01557 0 0 0 6.0228,2.15762c0.37063,0 0.503,-0.58242 0.09266,-0.68832z" class="cls-14"/>
     <path id="svg_284" d="m1515.74037,469.09721a-2.46207,-2.46207 0 0 1 -1.4693,-2.87241c0.41034,-1.17809 1.6149,-1.87964 2.5812,-2.55473a-0.45006,-0.45006 0 0 0 -0.45006,-0.76774a-5.14916,-5.14916 0 0 0 -3.16362,3.54749a-3.41513,-3.41513 0 0 0 2.0782,3.36218c0.47653,0.2515 0.88687,-0.45006 0.42358,-0.71479z" class="cls-14"/>
     <path id="svg_285" d="m1533.12045,461.208a-9.26584,-9.26584 0 0 0 -11.37051,1.23103c-0.3574,0.38387 0.13237,1.09866 0.58242,0.7545a-10.12624,-10.12624 0 0 1 10.49688,-1.49577c0.33092,0.13237 0.6089,-0.29121 0.29121,-0.48977z" class="cls-14"/>
     <path id="svg_286" d="m1515.27708,480.91778c-2.01201,-1.91935 0,-4.54026 1.32369,-6.18164c0.27798,-0.37063 -0.17208,-0.8604 -0.51624,-0.52948a-6.45962,-6.45962 0 0 0 -2.46207,3.97108a-3.00478,-3.00478 0 0 0 1.49577,3.01802c0.14561,0.07942 0.31769,-0.1059 0.18532,-0.22503l-0.02647,-0.05295z" class="cls-14"/>
     <polygon id="svg_287" points="1739.192819595337,722.7298278808594 1742.2901096343994,730.3145446777344 1712.335153579712,741.6850280761719 1739.192819595337,722.7298278808594 " class="cls-17"/>
     <polygon id="svg_288" points="1737.6836643218994,727.4024353027344 1712.335153579712,741.6850280761719 1729.9798069000244,723.7622985839844 1737.6836643218994,727.4024353027344 " class="cls-5"/>
     <polygon id="svg_289" points="1749.146921157837,733.3987731933594 1712.335153579712,741.6850280761719 1742.2901096343994,730.3145446777344 1749.146921157837,733.3987731933594 " class="cls-5"/>
     <polygon id="svg_290" points="1737.6836643218994,727.4024353027344 1739.192819595337,722.7298278808594 1734.612741470337,725.9595642089844 1737.6836643218994,727.4024353027344 " class="cls-9"/>
     <path id="svg_291" d="m1742.71383,723.74907c7.80978,1.32369 18.42579,-6.61846 13.85905,-14.82535c-1.54872,-2.80623 -9.57029,-1.58843 -8.97463,1.50901c0.29121,1.48253 2.10467,2.11791 3.61368,1.94583c8.73637,-1.00601 9.08053,-8.32602 8.69666,-10.19243c-1.99877,-9.63648 -16.77118,-6.3802 -21.73502,-5.01679" class="cls-16"/>
    </g>
   </g>
  </g>
 </g>
</svg>