<svg xmlns="http://www.w3.org/2000/svg" xmlns:xlink="http://www.w3.org/1999/xlink" width="141" height="58" viewBox="0 0 141 58">
  <defs>
    <filter id="Rectangle_2" x="0" y="0" width="141" height="58" filterUnits="userSpaceOnUse">
      <feOffset dy="3" input="SourceAlpha"/>
      <feGaussianBlur stdDeviation="3" result="blur"/>
      <feFlood flood-opacity="0.161"/>
      <feComposite operator="in" in2="blur"/>
      <feComposite in="SourceGraphic"/>
    </filter>
  </defs>
  <g id="Group_106" data-name="Group 106" transform="translate(-557 -750)">
    <g transform="matrix(1, 0, 0, 1, 557, 750)" filter="url(#Rectangle_2)">
      <rect id="Rectangle_2-2" data-name="Rectangle 2" width="123" height="40" rx="20" transform="translate(9 6)" fill="#d4def6"/>
    </g>
    <text id="Meeting" transform="translate(614 783)" fill="#2f61d5" font-size="15" font-family="SegoeUI, Segoe UI" letter-spacing="0.028em"><tspan x="0" y="0">Coding</tspan></text>
    <circle id="Mask" cx="16" cy="16" r="16" transform="translate(570 760)" fill="#2f61d5"/>
    <circle id="Mask-2" data-name="Mask" cx="16" cy="16" r="16" transform="translate(570 760)" fill="#2f61d5"/>
    <g id="coding" transform="translate(575.999 715.386)">
      <g id="Group_90" data-name="Group 90" transform="translate(13.866 54.776)">
        <g id="Group_89" data-name="Group 89">
          <path id="Path_430" data-name="Path 430" d="M361.115,116.493l-4.622-4.9a.749.749,0,1,0-1.09,1.029l4.136,4.382L355.4,121.39a.75.75,0,0,0,1.09,1.029l4.622-4.9A.75.75,0,0,0,361.115,116.493Z" transform="translate(-355.199 -111.361)" fill="#fff"/>
        </g>
      </g>
      <g id="Group_92" data-name="Group 92" transform="translate(0.001 54.776)">
        <g id="Group_91" data-name="Group 91" transform="translate(0 0)">
          <path id="Path_431" data-name="Path 431" d="M5.917,121.388l-4.136-4.382,4.136-4.382a.749.749,0,0,0-1.09-1.029L.2,116.491a.75.75,0,0,0,0,1.029l4.622,4.9a.75.75,0,0,0,1.09-1.029Z" transform="translate(-0.001 -111.36)" fill="#fff"/>
        </g>
      </g>
      <g id="Group_94" data-name="Group 94" transform="translate(8.145 52.478)">
        <g id="Group_93" data-name="Group 93" transform="translate(0 0)">
          <path id="Path_432" data-name="Path 432" d="M211.7,52.486a.75.75,0,0,0-.854.628l-2.2,14.39a.75.75,0,0,0,.628.854.771.771,0,0,0,.114.009.75.75,0,0,0,.74-.636l2.2-14.39A.75.75,0,0,0,211.7,52.486Z" transform="translate(-208.637 -52.478)" fill="#fff"/>
        </g>
      </g>
    </g>
  </g>
</svg>
