<svg xmlns="http://www.w3.org/2000/svg" xmlns:xlink="http://www.w3.org/1999/xlink" width="146" height="58" viewBox="0 0 146 58">
  <defs>
    <filter id="Rectangle_2" x="0" y="0" width="146" height="58" filterUnits="userSpaceOnUse">
      <feOffset dy="3" input="SourceAlpha"/>
      <feGaussianBlur stdDeviation="3" result="blur"/>
      <feFlood flood-opacity="0.161"/>
      <feComposite operator="in" in2="blur"/>
      <feComposite in="SourceGraphic"/>
    </filter>
  </defs>
  <g id="Group_110" data-name="Group 110" transform="translate(-852 -750)">
    <g transform="matrix(1, 0, 0, 1, 852, 750)" filter="url(#Rectangle_2)">
      <rect id="Rectangle_2-2" data-name="Rectangle 2" width="128" height="40" rx="20" transform="translate(9 6)" fill="#b9e4f3"/>
    </g>
    <text id="Other" transform="translate(909 783)" fill="#3fb6dc" font-size="15" font-family="SegoeUI, Segoe UI" letter-spacing="0.028em"><tspan x="0" y="0">Others</tspan></text>
    <ellipse id="Mask" cx="16.5" cy="16" rx="16.5" ry="16" transform="translate(865 760)" fill="#3fb6dc"/>
    <path id="_" data-name="?" d="M6.312,13.333H3.4V10.685H6.312v2.647ZM5.921,9.1H3.557V8.522A2.316,2.316,0,0,1,4.2,6.769,5.334,5.334,0,0,1,5.51,5.8l.821-.5a1.939,1.939,0,0,0,.782-1.454c0-.917-.829-1.51-2.111-1.51-1.511,0-2.326.834-2.423,2.479L0,4.606C.082,1.678,1.934,0,5.081,0A5.273,5.273,0,0,1,8.422,1.044,3.208,3.208,0,0,1,9.751,3.655a2.944,2.944,0,0,1-.664,2.051A4.882,4.882,0,0,1,7.7,6.788c-.054.038-.276.157-.438.244l-.168.091c-.025.018-.081.053-.145.093a3.353,3.353,0,0,0-.383.262,1.477,1.477,0,0,0-.644,1.175V9.1Z" transform="translate(877.019 769.333)" fill="#fff"/>
  </g>
</svg>
